<svg width="60" height="48" viewBox="0 0 60 48" fill="none" xmlns="http://www.w3.org/2000/svg">
<g clip-path="url(#clip0_583_2)">
<path d="M5 38.4H26V43.2H23C20.243 43.2 18 44.9944 18 47.2C18 47.6416 18.447 48 19 48H41C41.553 48 42 47.6416 42 47.2C42 44.9944 39.757 43.2 37 43.2H34V38.4H55C57.757 38.4 60 36.6056 60 34.4V29.6V4C60 1.7944 57.757 0 55 0H5C2.243 0 0 1.7944 0 4V29.6V34.4C0 36.6056 2.243 38.4 5 38.4ZM33 44.8H37C38.304 44.8 39.416 45.4688 39.829 46.4H20.171C20.584 45.4688 21.696 44.8 23 44.8H27C27.553 44.8 28 44.4416 28 44V38.4H32V44C32 44.4416 32.447 44.8 33 44.8ZM58 34.4C58 35.7232 56.654 36.8 55 36.8H33H27H5C3.346 36.8 2 35.7232 2 34.4V30.4H58V34.4ZM2 4C2 2.6768 3.346 1.6 5 1.6H55C56.654 1.6 58 2.6768 58 4V28.8H2V4Z" fill="#00CC99"/>
<path d="M33 32.8H27V34.4001H33V32.8Z" fill="#00CC99"/>
<path d="M10 20.8H22C22.553 20.8 23 20.4416 23 20V16.8C23 15.0768 21.623 13.6184 19.71 13.0568C20.503 12.348 21 11.4232 21 10.4C21 8.19442 18.757 6.40002 16 6.40002C13.243 6.40002 11 8.19442 11 10.4C11 11.4232 11.497 12.348 12.29 13.0568C10.377 13.6184 9 15.0768 9 16.8V20C9 20.4416 9.447 20.8 10 20.8ZM16 8.00002C17.654 8.00002 19 9.07682 19 10.4C19 11.7232 17.654 12.8 16 12.8C14.346 12.8 13 11.7232 13 10.4C13 9.07682 14.346 8.00002 16 8.00002ZM11 16.8C11 15.4768 12.346 14.4 14 14.4H18C19.654 14.4 21 15.4768 21 16.8V19.2H11V16.8Z" fill="#00CC99"/>
<path d="M46 8H33V9.6H46V8Z" fill="#00CC99"/>
<path d="M46 12.8H33V14.4H46V12.8Z" fill="#00CC99"/>
<path d="M37 17.6H33V19.2H37V17.6Z" fill="#00CC99"/>
<path d="M28 14.4C27.448 14.4 27 14.0408 27 13.6H25C25 14.6416 25.839 15.5216 27 15.8528V16.8H29V15.8528C30.161 15.5216 31 14.6416 31 13.6C31 13.388 30.895 13.184 30.707 13.0344L27.063 10.1192C27.206 9.81675 27.572 9.59995 28 9.59995C28.552 9.59995 29 9.95915 29 10.4H31C31 9.35835 30.161 8.47835 29 8.14715V7.19995H27V8.14715C25.839 8.47835 25 9.35835 25 10.4C25 10.612 25.105 10.816 25.293 10.9656L28.937 13.8808C28.794 14.1832 28.428 14.4 28 14.4Z" fill="#00CC99"/>
<path d="M54 3.19995H6C5.447 3.19995 5 3.55835 5 3.99995V24C5 24.4416 5.447 24.7999 6 24.7999H22.142C22.589 26.1759 24.141 27.2 26 27.2H34C35.859 27.2 37.411 26.1759 37.858 24.7999H41.356L42.042 26.6296C42.164 26.956 42.53 27.184 42.955 27.1992C42.971 27.2 42.985 27.2 43 27.2C43.407 27.2 43.776 27.0015 43.929 26.6975L44.877 24.7999H54C54.553 24.7999 55 24.4416 55 24V3.99995C55 3.55835 54.553 3.19995 54 3.19995ZM34 25.6H26C24.897 25.6 24 24.8824 24 24C24 23.1176 24.897 22.4 26 22.4H34C35.103 22.4 36 23.1176 36 24C36 24.8824 35.103 25.6 34 25.6ZM42.458 22.172L41.491 19.5935L46.969 20.908L44.628 21.6576C44.373 21.7392 44.172 21.9 44.07 22.1032L43.133 23.976L42.458 22.172ZM53 23.2H45.677L45.769 23.016L50.371 21.5431C50.767 21.4167 51.017 21.1047 50.999 20.7647C50.981 20.4247 50.694 20.132 50.287 20.0336L40.287 17.6336C39.934 17.5496 39.554 17.6264 39.293 17.8344C39.033 18.0424 38.937 18.348 39.042 18.6296L40.756 23.2H37.873C37.838 23.0904 37.784 22.988 37.735 22.884C37.711 22.8336 37.695 22.78 37.668 22.7304C37.572 22.5544 37.459 22.3855 37.326 22.2271C37.297 22.1919 37.26 22.1615 37.229 22.1271C37.12 22.0063 37.004 21.8912 36.875 21.784C36.816 21.7352 36.752 21.6928 36.69 21.6472C36.575 21.5632 36.458 21.4832 36.332 21.4104C36.258 21.3672 36.182 21.328 36.103 21.2896C35.974 21.2256 35.841 21.1679 35.703 21.1159C35.621 21.0847 35.539 21.0536 35.454 21.0264C35.301 20.9784 35.143 20.9416 34.981 20.9088C34.903 20.8928 34.829 20.8728 34.749 20.8608C34.506 20.8232 34.257 20.7999 34 20.7999H26C25.743 20.7999 25.494 20.8232 25.25 20.8608C25.171 20.8728 25.096 20.8936 25.018 20.9088C24.857 20.9416 24.698 20.9784 24.545 21.0264C24.46 21.0536 24.378 21.0847 24.296 21.1159C24.158 21.1687 24.025 21.2256 23.896 21.2896C23.818 21.3288 23.742 21.368 23.667 21.4104C23.541 21.4832 23.423 21.5632 23.309 21.6472C23.247 21.6928 23.182 21.7352 23.124 21.784C22.995 21.8912 22.879 22.0071 22.77 22.1271C22.739 22.1615 22.702 22.1919 22.673 22.2271C22.541 22.3855 22.427 22.5536 22.331 22.7304C22.304 22.78 22.288 22.8328 22.264 22.884C22.215 22.988 22.161 23.0912 22.126 23.2H7V4.79995H53V23.2Z" fill="#00CC99"/>
</g>
<defs>
<clipPath id="clip0_583_2">
<rect width="60" height="48" fill="white"/>
</clipPath>
</defs>
</svg>
