<svg width="17" height="14" viewBox="0 0 17 14" fill="none" xmlns="http://www.w3.org/2000/svg">
<path d="M6.41198 13.998C5.87906 13.998 5.37432 13.795 5.0509 13.445L0.673605 8.72401C0.538272 8.57821 0.439471 8.41207 0.382848 8.23509C0.326226 8.0581 0.312894 7.87374 0.343614 7.69255C0.374334 7.51135 0.448504 7.33688 0.561883 7.1791C0.675262 7.02132 0.825628 6.88332 1.00438 6.77301C1.18307 6.66223 1.38679 6.58133 1.60386 6.53494C1.82093 6.48854 2.04708 6.47757 2.26935 6.50266C2.49162 6.52774 2.70564 6.58838 2.89915 6.68111C3.09265 6.77383 3.26184 6.89681 3.39701 7.04301L6.27722 10.147L13.5188 0.655007C13.759 0.341607 14.1416 0.118754 14.5828 0.035331C15.024 -0.048092 15.4877 0.0147266 15.8722 0.210007C16.6722 0.616007 16.9185 1.47601 16.4186 2.13001L7.8625 13.34C7.71645 13.5322 7.51513 13.6924 7.27601 13.8068C7.0369 13.9211 6.76723 13.986 6.49039 13.996C6.46344 13.998 6.43894 13.998 6.41198 13.998Z" fill="#31B63A"/>
</svg>
