<svg width="60" height="56" viewBox="0 0 60 56" fill="none" xmlns="http://www.w3.org/2000/svg">
<path d="M58.8462 0.41923C53.8918 3.27787 48.2923 7.37038 43.0271 11.9856C38.7839 15.7061 34.2581 20.1895 30.0667 24.8236C27.1751 28.026 24.0575 31.7512 21.2412 35.3728C20.2617 36.6349 17.728 40.0163 16.9321 41.1324C16.5224 41.707 16.2963 41.9848 16.2492 41.9707C16.2115 41.9613 12.6276 39.9456 8.29024 37.4967L0.40191 33.0369L0.222951 33.2394C0.128762 33.3524 0.0251539 33.4749 0.00160665 33.5172C-0.0407784 33.5926 0.627963 34.3744 17.6809 54.1493L19.0513 55.7411H19.2397H19.4281L20.4971 53.6078C25.7764 43.101 30.9615 34.4497 36.8436 26.3306C43.3285 17.3874 50.6706 9.15055 58.931 1.56363C59.5196 1.02204 60 0.565223 60 0.546385C60 0.522838 59.675 0.0613121 59.6138 8.9217e-05C59.6044 -0.00462023 59.2606 0.183758 58.8462 0.41923Z" fill="#0BD113"/>
</svg>
