<svg width="88" height="75" viewBox="0 0 88 75" fill="none" xmlns="http://www.w3.org/2000/svg">
<path fill-rule="evenodd" clip-rule="evenodd" d="M21.3325 65.5492V39.1393H33.2109C38.2454 40.0403 43.2799 42.7721 48.3145 45.9402H57.5397C61.7161 46.1905 63.9044 50.4241 59.8425 53.206C56.6101 55.5802 52.3407 55.4443 47.9641 55.051C44.9462 54.9008 44.8175 58.9556 47.9641 58.9699C49.0582 59.0557 50.2454 58.7983 51.2823 58.7983C56.7388 58.7911 61.237 57.747 63.9902 53.4348L65.3705 50.2095L79.0939 43.4086C85.9592 41.1488 90.8435 48.3287 85.7804 53.3275C75.84 60.5575 65.6494 66.5074 55.2227 71.3131C47.6494 75.9186 40.0761 75.7613 32.51 71.3131L21.3325 65.5492ZM80.9604 17.4064C81.3251 18.0214 81.5253 18.6793 81.5253 19.3587C81.5253 22.9772 75.933 25.9021 69.0391 25.9021C62.1452 25.9021 56.5528 22.9701 56.5528 19.3587C56.5528 18.6793 56.7531 18.0214 57.1178 17.4064C58.7054 20.0667 63.4396 21.9975 69.0319 21.9975C74.6386 21.9975 79.3728 20.0667 80.9604 17.4064ZM52.6625 27.1536C53.0344 27.7758 53.2275 28.4266 53.2275 29.1059C53.2275 32.7245 47.6351 35.6494 40.7412 35.6494C33.8473 35.6494 28.255 32.7174 28.255 29.1059C28.255 28.4266 28.4552 27.7686 28.8199 27.1536C30.4075 29.8139 35.1417 31.7448 40.7341 31.7448C46.3407 31.7448 51.0749 29.8139 52.6625 27.1536ZM42.5577 17.5851L42.5291 15.9618C42.9009 15.9475 43.1941 15.8331 43.423 15.6257C43.659 15.4183 43.7805 15.168 43.8091 14.8748C43.8378 14.5387 43.7233 14.2383 43.473 13.9809C43.2227 13.7234 42.8151 13.5661 42.2645 13.5232C41.7496 13.4803 41.3491 13.5589 41.0702 13.7735C40.7913 13.9809 40.6339 14.2741 40.6053 14.6459C40.5696 15.1108 40.7341 15.5399 41.1131 15.9475L40.8127 17.2419L36.5005 16.0333L36.8723 11.7711L38.3813 11.8998L38.1167 14.9463L39.5255 15.3253C39.3753 14.9463 39.3181 14.5744 39.3539 14.1954C39.4111 13.4803 39.7329 12.8939 40.2907 12.4433C40.8556 11.9928 41.5493 11.7997 42.386 11.8784C43.0797 11.9356 43.6804 12.193 44.1882 12.6436C44.8818 13.2514 45.1894 14.0452 45.1035 15.0178C45.032 15.7902 44.7746 16.4123 44.3169 16.8629C43.8592 17.3062 43.2728 17.5494 42.5577 17.5851ZM40.7412 11.0774C46.4051 11.0774 51.0034 12.8796 51.0034 15.1036C51.0034 17.3277 46.4051 19.1298 40.7412 19.1298C35.0774 19.1298 30.479 17.3348 30.479 15.1108C30.479 12.8867 35.0774 11.0774 40.7412 11.0774ZM40.7412 9.74727C47.6351 9.74727 53.2275 12.6793 53.2275 16.2907C53.2275 19.9093 47.6351 22.8342 40.7412 22.8342C33.8473 22.8271 28.255 19.9022 28.255 16.2907C28.2621 12.6793 33.8545 9.74727 40.7412 9.74727ZM52.7054 20.6531C53.0415 21.2466 53.2275 21.8831 53.2275 22.5339C53.2275 26.1524 47.6351 29.0773 40.7412 29.0773C33.8473 29.0773 28.255 26.1453 28.255 22.5339C28.255 21.8759 28.4338 21.2538 28.777 20.6602C30.3217 23.3563 35.0917 25.3229 40.7341 25.3229C46.3908 25.3229 51.1607 23.3563 52.7054 20.6531ZM73.5516 3.88318L73.4086 5.50653L67.2799 4.97018C67.7876 5.6138 68.1309 6.35039 68.3311 7.17279L66.8579 7.04407C66.7578 6.60784 66.529 6.12154 66.1929 5.5995C65.8496 5.06315 65.4277 4.69128 64.9199 4.46243L65.0343 3.14659L73.5516 3.88318ZM69.0391 1.3373C74.703 1.3373 79.3013 3.13944 79.3013 5.3635C79.3013 7.58757 74.703 9.38971 69.0391 9.38971C63.3752 9.38971 58.7841 7.58042 58.7841 5.35635C58.7841 3.13229 63.3752 1.3373 69.0391 1.3373ZM69.0391 0C75.933 0 81.5253 2.93205 81.5253 6.54347C81.5253 10.1549 75.933 13.0869 69.0391 13.0869C62.1452 13.0869 56.5528 10.1549 56.5528 6.54347C56.5528 2.93205 62.1524 0 69.0391 0ZM81.0033 10.9058C81.3394 11.4994 81.5253 12.1358 81.5253 12.7794C81.5253 16.398 75.933 19.3229 69.0391 19.3229C62.1452 19.3229 56.5528 16.3909 56.5528 12.7794C56.5528 12.1215 56.7316 11.4994 57.0749 10.9058C58.6124 13.6018 63.3824 15.5685 69.0319 15.5685C74.6887 15.5756 79.4658 13.609 81.0033 10.9058ZM80.8817 30.7436C81.2965 31.4015 81.5253 32.0952 81.5253 32.8246C81.5253 36.4432 75.933 39.3681 69.0391 39.3681C62.1452 39.3681 56.5528 36.4361 56.5528 32.8246C56.5528 32.0952 56.7817 31.4015 57.1965 30.7436C58.8556 33.3324 63.5326 35.206 69.0319 35.206C74.5313 35.206 79.2226 33.3395 80.8817 30.7436ZM80.9389 24.007C81.318 24.6364 81.5253 25.3014 81.5253 25.9951C81.5253 29.6065 75.933 32.5386 69.0391 32.5386C62.1452 32.5386 56.5528 29.6065 56.5528 25.9951C56.5528 25.3014 56.7602 24.6364 57.1393 24.007C58.7412 26.653 63.461 28.5624 69.0391 28.5624C74.6171 28.5624 79.3299 26.653 80.9389 24.007ZM0 36.6005H17.7568V68.1952H0V36.6005Z" fill="#D71921"/>
</svg>
