<svg width="25" height="27" viewBox="0 0 25 27" fill="none" xmlns="http://www.w3.org/2000/svg">
<path d="M1.92308 25.0001H6.25V20.6732H1.92308V25.0001ZM7.21154 25.0001H12.0192V20.6732H7.21154V25.0001ZM1.92308 19.7116H6.25V14.9039H1.92308V19.7116ZM7.21154 19.7116H12.0192V14.9039H7.21154V19.7116ZM1.92308 13.9424H6.25V9.61543H1.92308V13.9424ZM12.9808 25.0001H17.7885V20.6732H12.9808V25.0001ZM7.21154 13.9424H12.0192V9.61543H7.21154V13.9424ZM18.75 25.0001H23.0769V20.6732H18.75V25.0001ZM12.9808 19.7116H17.7885V14.9039H12.9808V19.7116ZM7.69231 6.7308V2.40386C7.69231 2.27365 7.64473 2.16097 7.54958 2.06582C7.45443 1.97066 7.34175 1.92309 7.21154 1.92309H6.25C6.11979 1.92309 6.00711 1.97066 5.91196 2.06582C5.81681 2.16097 5.76923 2.27365 5.76923 2.40386V6.7308C5.76923 6.86101 5.81681 6.97369 5.91196 7.06885C6.00711 7.164 6.11979 7.21157 6.25 7.21157H7.21154C7.34175 7.21157 7.45443 7.164 7.54958 7.06885C7.64473 6.97369 7.69231 6.86101 7.69231 6.7308ZM18.75 19.7116H23.0769V14.9039H18.75V19.7116ZM12.9808 13.9424H17.7885V9.61543H12.9808V13.9424ZM18.75 13.9424H23.0769V9.61543H18.75V13.9424ZM19.2308 6.7308V2.40386C19.2308 2.27365 19.1832 2.16097 19.088 2.06582C18.9929 1.97066 18.8802 1.92309 18.75 1.92309H17.7885C17.6583 1.92309 17.5456 1.97066 17.4504 2.06582C17.3553 2.16097 17.3077 2.27365 17.3077 2.40386V6.7308C17.3077 6.86101 17.3553 6.97369 17.4504 7.06885C17.5456 7.164 17.6583 7.21157 17.7885 7.21157H18.75C18.8802 7.21157 18.9929 7.164 19.088 7.06885C19.1832 6.97369 19.2308 6.86101 19.2308 6.7308ZM25 5.76926V25.0001C25 25.521 24.8097 25.9717 24.4291 26.3523C24.0485 26.7329 23.5978 26.9232 23.0769 26.9232H1.92308C1.40224 26.9232 0.951522 26.7329 0.570913 26.3523C0.190304 25.9717 0 25.521 0 25.0001V5.76926C0 5.24842 0.190304 4.7977 0.570913 4.41709C0.951522 4.03648 1.40224 3.84617 1.92308 3.84617H3.84615V2.40386C3.84615 1.7428 4.08153 1.17689 4.55228 0.706133C5.02304 0.235378 5.58894 0 6.25 0H7.21154C7.8726 0 8.4385 0.235378 8.90925 0.706133C9.38001 1.17689 9.61538 1.7428 9.61538 2.40386V3.84617H15.3846V2.40386C15.3846 1.7428 15.62 1.17689 16.0907 0.706133C16.5615 0.235378 17.1274 0 17.7885 0H18.75C19.4111 0 19.977 0.235378 20.4477 0.706133C20.9185 1.17689 21.1538 1.7428 21.1538 2.40386V3.84617H23.0769C23.5978 3.84617 24.0485 4.03648 24.4291 4.41709C24.8097 4.7977 25 5.24842 25 5.76926Z" fill="#183D4C"/>
</svg>
