<svg width="316" height="306" viewBox="0 0 316 306" fill="none" xmlns="http://www.w3.org/2000/svg">
<g clip-path="url(#clip0_628_93)">
<path opacity="0.18" d="M96.11 206.24C116.79 215.33 140.18 215.19 162.77 214.89C174.62 214.74 186.88 214.5 197.67 209.59C212.67 202.76 222.41 188.1 235.57 178.18C250.68 166.77 270.02 161.85 284.67 149.86C291.8 144.029 297.574 136.713 301.59 128.423C305.605 120.133 307.765 111.068 307.921 101.858C308.076 92.648 306.222 83.5149 302.488 75.0944C298.754 66.6738 293.23 59.1682 286.3 53.1C278.55 46.32 269.3 41.53 260.13 36.82L214.08 13.12C203.29 7.56999 192.22 1.92999 180.18 0.419993C170.02 -0.850007 159.74 0.909994 149.81 3.17999C121.51 9.57999 93.43 20.61 72.67 40.8C54.81 58.2 43.15 81.57 23.61 97.06C18.61 101.01 13.07 104.5 9.43 109.72C-3.67 128.53 9.6 152.56 26.62 162.2C50.19 175.54 71.4 195.39 96.11 206.24Z" fill="#D71921"/>
<path d="M157.68 305.59C244.764 305.59 315.36 296.868 315.36 286.11C315.36 275.351 244.764 266.63 157.68 266.63C70.5957 266.63 0 275.351 0 286.11C0 296.868 70.5957 305.59 157.68 305.59Z" fill="#D71921"/>
<path d="M157.68 305.59C244.764 305.59 315.36 296.868 315.36 286.11C315.36 275.351 244.764 266.63 157.68 266.63C70.5957 266.63 0 275.351 0 286.11C0 296.868 70.5957 305.59 157.68 305.59Z" fill="url(#paint0_linear_628_93)"/>
<path d="M71.3 95.8C68.3753 93.8166 65.0821 92.4406 61.6157 91.7535C58.1493 91.0664 54.5802 91.0822 51.12 91.8C49.8535 91.9973 48.6569 92.5097 47.64 93.29C45.27 95.29 45.64 99.01 45.01 102.07C44.24 105.84 41.71 109.07 40.8 112.79C40.27 115.589 40.2396 118.46 40.71 121.27C42.0424 132.354 44.698 143.238 48.62 153.69L37.62 298.6C37.62 298.6 48.87 300.42 71.69 302.24L74.11 164.24L71.3 95.8Z" fill="#EEA886"/>
<path d="M58.79 180.31L73.36 239.23V154.25L66.88 134.99L58.79 180.31Z" fill="url(#paint1_linear_628_93)"/>
<path d="M249.32 97.04C252.251 95.0713 255.547 93.7101 259.013 93.0368C262.479 92.3635 266.045 92.3918 269.5 93.12C270.768 93.3218 271.967 93.8336 272.99 94.61C275.35 96.61 274.99 100.33 275.61 103.4C276.39 107.17 278.92 110.4 279.83 114.12C280.362 116.916 280.389 119.785 279.91 122.59C278.587 133.674 275.935 144.559 272.01 155.01L282.96 297.9C282.96 297.9 270.71 299.96 248.82 302.03L246.47 165.55L249.32 97.04Z" fill="#EEA886"/>
<path d="M263.7 176.1L258.53 202.65L247.52 226.6L246.55 174.48L263.7 176.1Z" fill="url(#paint2_linear_628_93)"/>
<path d="M255.98 48.4H61.01C56.3874 48.4 52.64 52.1474 52.64 56.77V173.4C52.64 178.023 56.3874 181.77 61.01 181.77H255.98C260.603 181.77 264.35 178.023 264.35 173.4V56.77C264.35 52.1474 260.603 48.4 255.98 48.4Z" fill="#D71921"/>
<path d="M255.98 48.4H61.01C56.3874 48.4 52.64 52.1474 52.64 56.77V173.4C52.64 178.023 56.3874 181.77 61.01 181.77H255.98C260.603 181.77 264.35 178.023 264.35 173.4V56.77C264.35 52.1474 260.603 48.4 255.98 48.4Z" fill="url(#paint3_linear_628_93)"/>
<path d="M255.98 43.05H61.01C56.3874 43.05 52.64 46.7974 52.64 51.42V168.05C52.64 172.673 56.3874 176.42 61.01 176.42H255.98C260.603 176.42 264.35 172.673 264.35 168.05V51.42C264.35 46.7974 260.603 43.05 255.98 43.05Z" fill="#D71921"/>
<path d="M71.39 98.65C74.76 94.91 74.76 94.91 78.57 90.43L94.8 71.43C97.3527 68.6426 99.6926 65.6676 101.8 62.53H117.13C116.699 66.6522 116.502 70.7955 116.54 74.94V99.25H118.71C121.188 99.2266 123.661 99.0261 126.11 98.65V112.27C123.678 111.968 121.23 111.818 118.78 111.82H116.54V115.56C116.471 118.638 116.668 121.716 117.13 124.76H101.73C102.148 121.661 102.345 118.537 102.32 115.41V111.8H81.12C76.25 111.8 74.12 111.87 71.39 112.09V98.65ZM102.39 90.73C102.39 87.36 102.54 83.25 102.84 79.96C101.34 82.05 100.22 83.55 98.2 86.09L87.25 99.4H102.36L102.39 90.73Z" fill="white"/>
<path d="M138.48 119.15C136.093 116.801 134.232 113.972 133.02 110.85C131.049 105.356 130.061 99.5571 130.1 93.72C130.1 85.86 131.97 77.72 134.82 73C139.38 65.37 147.16 61.18 156.58 61.18C163.84 61.18 170.2 63.65 174.76 68.18C177.15 70.5265 179.011 73.3563 180.22 76.48C182.202 81.9959 183.19 87.8192 183.14 93.68C183.14 101.54 181.27 109.77 178.43 114.48C173.94 121.96 166.08 126.15 156.58 126.15C149.25 126.11 143.05 123.71 138.48 119.15ZM145.48 93.15C145.48 106.54 149.29 113.42 156.7 113.42C164.11 113.42 167.77 106.69 167.77 93.42C167.73 80.55 163.81 73.8 156.58 73.8C149.55 73.8 145.44 80.93 145.44 93.12L145.48 93.15Z" fill="white"/>
<path d="M187.02 98.65C190.39 94.91 190.39 94.91 194.2 90.43L210.44 71.43C212.976 68.6415 215.299 65.6665 217.39 62.53H232.73C232.291 66.6516 232.091 70.7952 232.13 74.94V99.25H234.3C236.778 99.2266 239.251 99.0261 241.7 98.65V112.27C239.268 111.968 236.82 111.818 234.37 111.82H232.13V115.56C232.059 118.638 232.259 121.717 232.73 124.76H217.32C217.741 121.662 217.942 118.537 217.92 115.41V111.8H196.75C191.89 111.8 189.75 111.87 187.02 112.09V98.65ZM218.02 90.73C218.02 87.36 218.17 83.25 218.47 79.96C216.97 82.05 215.85 83.55 213.83 86.09L202.88 99.4H217.99L218.02 90.73Z" fill="white"/>
<path d="M72.11 146.67C73.3694 146.464 74.6439 146.364 75.92 146.37C77.4683 146.252 79.0057 146.708 80.24 147.65C80.6849 148.057 81.0361 148.556 81.2692 149.112C81.5023 149.667 81.6117 150.268 81.59 150.87C81.6208 151.47 81.5314 152.07 81.327 152.635C81.1227 153.2 80.8075 153.719 80.4 154.16C79.7697 154.745 79.0274 155.196 78.2179 155.487C77.4084 155.777 76.5485 155.901 75.69 155.85C75.1563 155.869 74.6221 155.822 74.1 155.71V161.88H72.1L72.11 146.67ZM74.11 154.09C74.6474 154.214 75.1987 154.268 75.75 154.25C78.15 154.25 79.61 153.09 79.61 150.96C79.61 148.83 78.17 147.96 75.98 147.96C75.3526 147.943 74.7254 147.997 74.11 148.12V154.09Z" fill="white"/>
<path d="M84.81 157.04L83.21 161.88H81.21L86.43 146.49H88.81L94.06 161.88H91.94L90.3 157.04H84.81ZM89.81 155.49L88.3 151.06C87.96 150.06 87.73 149.14 87.5 148.25C87.28 149.16 87.02 150.1 86.73 151.03L85.22 155.49H89.81Z" fill="white"/>
<path d="M107.69 161.19C106.173 161.738 104.573 162.025 102.96 162.04C101.909 162.141 100.848 162.011 99.8523 161.658C98.8567 161.305 97.9505 160.739 97.1974 159.998C96.4444 159.257 95.8628 158.361 95.4935 157.371C95.1242 156.381 94.9762 155.323 95.06 154.27C95.06 149.68 98.23 146.33 103.39 146.33C104.705 146.298 106.013 146.539 107.23 147.04L106.75 148.66C105.679 148.191 104.518 147.966 103.35 148C99.6 148 97.16 150.33 97.16 154.18C97.16 158.03 99.51 160.4 103.1 160.4C104.003 160.448 104.906 160.305 105.75 159.98V155.4H102.62V153.8H107.69V161.19Z" fill="white"/>
<path d="M118.69 154.66H112.69V160.21H119.36V161.88H110.7V146.49H119.02V148.16H112.71V153.02H118.71L118.69 154.66Z" fill="white"/>
<path d="M126.81 161.88V146.49H128.98L133.91 154.27C134.937 155.877 135.862 157.547 136.68 159.27C136.5 157.27 136.45 155.35 136.45 152.95V146.51H138.33V161.9H136.33L131.44 154.09C130.379 152.435 129.417 150.719 128.56 148.95H128.49C128.61 150.9 128.65 152.75 128.65 155.3V161.88H126.81Z" fill="white"/>
<path d="M154.98 154.02C154.98 159.32 151.76 162.13 147.83 162.13C143.9 162.13 140.91 158.98 140.91 154.32C140.91 149.43 143.91 146.24 148.06 146.24C152.21 146.24 154.98 149.46 154.98 154.02ZM143.04 154.27C143.04 157.56 144.82 160.51 147.95 160.51C151.08 160.51 152.88 157.61 152.88 154.11C152.88 151.06 151.28 147.86 147.97 147.86C144.66 147.86 143.04 150.9 143.04 154.27Z" fill="white"/>
<path d="M159.91 148.18H155.23V146.49H166.63V148.18H161.92V161.88H159.92L159.91 148.18Z" fill="white"/>
<path d="M173.18 146.49H181.47V148.16H175.17V153.27H180.99V154.91H175.17V161.91H173.17L173.18 146.49Z" fill="white"/>
<path d="M197.45 154.02C197.45 159.32 194.23 162.13 190.31 162.13C186.24 162.13 183.39 158.98 183.39 154.32C183.39 149.43 186.39 146.24 190.53 146.24C194.67 146.24 197.45 149.46 197.45 154.02ZM185.51 154.27C185.51 157.56 187.29 160.51 190.42 160.51C193.55 160.51 195.35 157.61 195.35 154.11C195.35 151.06 193.75 147.86 190.44 147.86C187.13 147.86 185.51 150.9 185.51 154.27Z" fill="white"/>
<path d="M202.02 146.49V155.6C202.02 159.05 203.55 160.51 205.61 160.51C207.89 160.51 209.35 159 209.35 155.6V146.49H211.35V155.49C211.35 160.22 208.86 162.16 205.53 162.16C202.38 162.16 200 160.36 200 155.58V146.52L202.02 146.49Z" fill="white"/>
<path d="M214.81 161.88V146.49H216.98L221.91 154.27C222.938 155.875 223.86 157.545 224.67 159.27H224.72C224.54 157.27 224.49 155.35 224.49 152.95V146.51H226.36V161.9H224.36L219.48 154.09C218.415 152.437 217.453 150.721 216.6 148.95H216.53C216.64 150.9 216.69 152.75 216.69 155.3V161.88H214.81Z" fill="white"/>
<path d="M229.81 146.69C231.21 146.48 232.624 146.373 234.04 146.37C236.89 146.37 238.93 147.04 240.27 148.29C241.01 149 241.587 149.862 241.961 150.817C242.336 151.772 242.499 152.796 242.44 153.82C242.497 154.918 242.33 156.015 241.95 157.047C241.571 158.078 240.985 159.022 240.23 159.82C238.79 161.26 236.41 162.04 233.42 162.04C232.213 162.031 231.008 161.951 229.81 161.8V146.69ZM231.81 160.3C232.472 160.398 233.141 160.438 233.81 160.42C238.06 160.42 240.36 158.04 240.36 153.89C240.36 150.26 238.36 147.95 234.13 147.95C233.348 147.935 232.567 148.006 231.8 148.16L231.81 160.3Z" fill="white"/>
<path d="M61.61 94.05C62.468 94.4772 63.199 95.122 63.73 95.92C64.1694 96.8578 64.385 97.8847 64.36 98.92L64.66 105.37C64.7957 106.431 64.6687 107.509 64.29 108.51C64.0882 109.004 63.7191 109.41 63.2473 109.659C62.7755 109.908 62.2313 109.982 61.71 109.87C62.0929 111.125 62.2167 112.445 62.0741 113.75C61.9314 115.055 61.5252 116.317 60.88 117.46C60.5566 117.941 60.3041 118.467 60.13 119.02C60.0469 119.687 60.0808 120.364 60.23 121.02C60.4568 122.638 60.3359 124.286 59.8755 125.853C59.4151 127.42 58.6257 128.872 57.56 130.11C57.2342 130.516 56.8336 130.855 56.38 131.11C55.7851 131.364 55.1466 131.5 54.5 131.51L51.56 131.76C51.4146 131.808 51.2603 131.821 51.1088 131.8C50.9573 131.779 50.8128 131.723 50.6862 131.637C50.5597 131.551 50.4546 131.437 50.3789 131.304C50.3033 131.171 50.2592 131.023 50.25 130.87C48.0177 123.789 47.0033 116.38 47.25 108.96C47.3656 105.221 47.8141 101.5 48.59 97.84C49.06 95.7 49.98 92.44 52.27 91.57C55.23 90.53 59.05 92.58 61.61 94.05Z" fill="#EEA886"/>
<path d="M254.73 94.05C253.872 94.4772 253.141 95.122 252.61 95.92C252.171 96.8577 251.955 97.8847 251.98 98.92L251.68 105.37C251.544 106.431 251.671 107.509 252.05 108.51C252.252 109.004 252.621 109.41 253.093 109.659C253.564 109.908 254.109 109.982 254.63 109.87C254.248 111.125 254.124 112.444 254.265 113.749C254.405 115.053 254.809 116.315 255.45 117.46C255.78 117.939 256.037 118.465 256.21 119.02C256.294 119.688 256.257 120.365 256.1 121.02C255.878 122.639 256.002 124.286 256.464 125.853C256.926 127.42 257.715 128.871 258.78 130.11C259.106 130.516 259.506 130.855 259.96 131.11C260.555 131.364 261.193 131.499 261.84 131.51L264.81 131.8C264.955 131.848 265.11 131.861 265.261 131.84C265.413 131.819 265.557 131.763 265.684 131.677C265.81 131.591 265.915 131.477 265.991 131.344C266.067 131.211 266.111 131.063 266.12 130.91C268.352 123.829 269.367 116.42 269.12 109C269.006 105.26 268.554 101.538 267.77 97.88C267.31 95.74 266.77 93.06 264.5 92.19C261.51 91.1 257.29 92.58 254.73 94.05Z" fill="#EEA886"/>
</g>
<defs>
<linearGradient id="paint0_linear_628_93" x1="156.72" y1="259" x2="159.63" y2="341.54" gradientUnits="userSpaceOnUse">
<stop stop-opacity="0"/>
<stop offset="0.95"/>
</linearGradient>
<linearGradient id="paint1_linear_628_93" x1="67.7" y1="231.63" x2="64.79" y2="116.55" gradientUnits="userSpaceOnUse">
<stop stop-opacity="0"/>
<stop offset="0.99"/>
</linearGradient>
<linearGradient id="paint2_linear_628_93" x1="256" y1="215.77" x2="254.06" y2="143.58" gradientUnits="userSpaceOnUse">
<stop stop-opacity="0"/>
<stop offset="0.95"/>
</linearGradient>
<linearGradient id="paint3_linear_628_93" x1="154.93" y1="238.45" x2="159.46" y2="81.77" gradientUnits="userSpaceOnUse">
<stop stop-opacity="0"/>
<stop offset="0.99"/>
</linearGradient>
<clipPath id="clip0_628_93">
<rect width="315.35" height="305.59" fill="white"/>
</clipPath>
</defs>
</svg>
