<svg width="302" height="181" viewBox="0 0 302 181" fill="none" xmlns="http://www.w3.org/2000/svg">
<path d="M58.51 32.13H250.72C254.534 32.13 258.191 33.645 260.888 36.3418C263.585 39.0386 265.1 42.6962 265.1 46.51V163.9H44.1V46.51C44.1 44.6191 44.4729 42.7467 45.1975 41.0001C45.922 39.2535 46.9839 37.6669 48.3224 36.3312C49.6609 34.9955 51.2497 33.9369 52.9978 33.216C54.7459 32.4951 56.6191 32.1261 58.51 32.13Z" fill="white"/>
<path d="M265.1 164.35H44.1C43.9806 164.35 43.8662 164.303 43.7818 164.218C43.6974 164.134 43.65 164.019 43.65 163.9V46.51C43.6526 42.575 45.217 38.8019 47.9995 36.0194C50.7819 33.237 54.555 31.6726 58.49 31.67H250.72C254.654 31.6753 258.426 33.2405 261.208 36.0224C263.99 38.8043 265.555 42.5758 265.56 46.51V163.9C265.557 164.02 265.508 164.135 265.422 164.219C265.336 164.303 265.22 164.35 265.1 164.35ZM44.58 163.44H264.64V46.51C264.637 42.819 263.17 39.2799 260.56 36.67C257.95 34.0601 254.411 32.5926 250.72 32.59H58.51C54.8181 32.5926 51.278 34.0597 48.6665 36.6694C46.0549 39.279 44.5853 42.8181 44.58 46.51V163.44Z" fill="#231F20"/>
<path d="M57.94 43.94H251.29V163.9H57.94V43.94Z" fill="#E2E0E1" fill-opacity="0.22"/>
<path d="M283.52 164.41H25.7C25.6226 164.432 25.5411 164.436 25.462 164.421C25.3829 164.407 25.3083 164.374 25.244 164.325C25.1798 164.277 25.1276 164.214 25.0917 164.142C25.0558 164.07 25.0372 163.991 25.0372 163.91C25.0372 163.83 25.0558 163.75 25.0917 163.678C25.1276 163.606 25.1798 163.543 25.244 163.495C25.3083 163.446 25.3829 163.414 25.462 163.399C25.5411 163.384 25.6226 163.388 25.7 163.41H283.52C283.597 163.388 283.679 163.384 283.758 163.399C283.837 163.414 283.912 163.446 283.976 163.495C284.04 163.543 284.092 163.606 284.128 163.678C284.164 163.75 284.183 163.83 284.183 163.91C284.183 163.991 284.164 164.07 284.128 164.142C284.092 164.214 284.04 164.277 283.976 164.325C283.912 164.374 283.837 164.407 283.758 164.421C283.679 164.436 283.597 164.432 283.52 164.41Z" fill="#231F20"/>
<path d="M21.14 163.9H288.08C288.08 168.143 286.394 172.213 283.394 175.214C280.393 178.214 276.323 179.9 272.08 179.9H37.08C32.8366 179.9 28.7669 178.214 25.7663 175.214C22.7657 172.213 21.08 168.143 21.08 163.9H21.14Z" fill="white"/>
<path d="M272.11 180.33H37.11C32.7559 180.322 28.5825 178.588 25.5045 175.508C22.4266 172.429 20.6953 168.254 20.69 163.9C20.69 163.78 20.7371 163.664 20.8212 163.578C20.9053 163.492 21.0197 163.443 21.14 163.44H288.08C288.201 163.443 288.317 163.492 288.402 163.578C288.488 163.663 288.537 163.779 288.54 163.9C288.535 168.256 286.802 172.432 283.722 175.512C280.642 178.592 276.466 180.325 272.11 180.33ZM21.61 164.33C21.7321 168.363 23.4193 172.191 26.3143 175.002C29.2093 177.813 33.0848 179.387 37.12 179.39H272.12C276.154 179.384 280.028 177.809 282.923 174.999C285.817 172.189 287.505 168.363 287.63 164.33H21.61Z" fill="#231F20"/>
<path d="M132.97 163.9H176.26V167.89H132.97V163.9Z" fill="#D71921"/>
<path d="M66.98 55.89C68.7639 55.89 70.21 54.4439 70.21 52.66C70.21 50.8761 68.7639 49.43 66.98 49.43C65.1961 49.43 63.75 50.8761 63.75 52.66C63.75 54.4439 65.1961 55.89 66.98 55.89Z" fill="#D71921"/>
<path d="M77.92 55.89C79.7039 55.89 81.15 54.4439 81.15 52.66C81.15 50.8761 79.7039 49.43 77.92 49.43C76.1361 49.43 74.69 50.8761 74.69 52.66C74.69 54.4439 76.1361 55.89 77.92 55.89Z" fill="white"/>
<path d="M88.87 55.89C90.6539 55.89 92.1 54.4439 92.1 52.66C92.1 50.8761 90.6539 49.43 88.87 49.43C87.0861 49.43 85.64 50.8761 85.64 52.66C85.64 54.4439 87.0861 55.89 88.87 55.89Z" fill="white"/>
<path d="M119.74 102.07C119.523 102.071 119.308 102.03 119.107 101.947C118.906 101.865 118.724 101.743 118.57 101.59C118.263 101.278 118.092 100.858 118.092 100.42C118.092 99.9824 118.263 99.5623 118.57 99.25L131.11 86.71C131.42 86.401 131.841 86.228 132.279 86.2289C132.716 86.2299 133.136 86.4047 133.445 86.715C133.754 87.0253 133.927 87.4456 133.926 87.8835C133.925 88.3214 133.75 88.741 133.44 89.05L120.9 101.59C120.748 101.742 120.567 101.863 120.368 101.945C120.169 102.028 119.955 102.07 119.74 102.07Z" fill="#D71921"/>
<path d="M132.28 102.07C131.842 102.071 131.421 101.898 131.11 101.59L118.57 89.05C118.26 88.741 118.085 88.3214 118.084 87.8835C118.083 87.4456 118.256 87.0253 118.565 86.715C118.874 86.4047 119.294 86.2299 119.731 86.2289C120.169 86.228 120.59 86.401 120.9 86.71L133.44 99.25C133.671 99.4802 133.829 99.7738 133.894 100.094C133.959 100.414 133.927 100.746 133.803 101.048C133.678 101.35 133.467 101.608 133.196 101.79C132.925 101.972 132.606 102.069 132.28 102.07Z" fill="#D71921"/>
<path d="M177 102.07C176.673 102.071 176.352 101.975 176.08 101.794C175.807 101.613 175.595 101.355 175.469 101.052C175.344 100.75 175.311 100.417 175.376 100.096C175.44 99.7754 175.598 99.4808 175.83 99.25L188.37 86.71C188.524 86.557 188.706 86.4358 188.906 86.3532C189.107 86.2707 189.322 86.2285 189.539 86.2289C189.755 86.2294 189.97 86.2725 190.17 86.3559C190.37 86.4393 190.552 86.5614 190.705 86.715C190.858 86.8686 190.979 87.0509 191.062 87.2514C191.144 87.4519 191.187 87.6667 191.186 87.8835C191.186 88.1004 191.142 88.315 191.059 88.5151C190.976 88.7153 190.854 88.897 190.7 89.05L178.16 101.59C178.008 101.742 177.827 101.863 177.628 101.945C177.429 102.028 177.215 102.07 177 102.07Z" fill="#D71921"/>
<path d="M189.49 102.07C189.273 102.071 189.058 102.03 188.857 101.947C188.656 101.865 188.474 101.743 188.32 101.59L175.78 89.05C175.626 88.897 175.504 88.7153 175.421 88.5151C175.338 88.315 175.294 88.1004 175.294 87.8835C175.293 87.6667 175.336 87.4519 175.418 87.2514C175.501 87.0509 175.622 86.8686 175.775 86.715C175.928 86.5614 176.11 86.4393 176.31 86.3559C176.51 86.2725 176.725 86.2294 176.941 86.2289C177.158 86.2285 177.373 86.2707 177.574 86.3532C177.774 86.4358 177.956 86.557 178.11 86.71L190.65 99.25C190.881 99.4802 191.039 99.7738 191.104 100.094C191.169 100.414 191.137 100.746 191.013 101.048C190.888 101.35 190.677 101.608 190.406 101.79C190.135 101.972 189.816 102.069 189.49 102.07Z" fill="#D71921"/>
<path d="M251.15 61.08H58.07C57.9374 61.08 57.8102 61.0273 57.7165 60.9335C57.6227 60.8398 57.57 60.7126 57.57 60.58C57.57 60.4474 57.6227 60.3202 57.7165 60.2264C57.8102 60.1327 57.9374 60.08 58.07 60.08H251.15C251.283 60.08 251.41 60.1327 251.504 60.2264C251.597 60.3202 251.65 60.4474 251.65 60.58C251.65 60.7126 251.597 60.8398 251.504 60.9335C251.41 61.0273 251.283 61.08 251.15 61.08Z" fill="white"/>
<path d="M97.59 130.32C97.0892 130.383 96.583 130.254 96.1731 129.96C95.7632 129.665 95.4798 129.227 95.3799 128.732C95.2799 128.237 95.3707 127.723 95.6341 127.292C95.8975 126.861 96.314 126.546 96.8 126.41C115.082 118.635 134.744 114.627 154.61 114.627C174.476 114.627 194.138 118.635 212.42 126.41C212.666 126.514 212.89 126.665 213.077 126.855C213.265 127.045 213.414 127.27 213.514 127.518C213.615 127.765 213.666 128.03 213.665 128.297C213.663 128.565 213.609 128.829 213.505 129.075C213.401 129.321 213.25 129.545 213.06 129.732C212.87 129.92 212.645 130.069 212.397 130.169C212.15 130.27 211.885 130.321 211.618 130.32C211.351 130.318 211.086 130.264 210.84 130.16C193.057 122.6 173.933 118.703 154.61 118.703C135.287 118.703 116.163 122.6 98.38 130.16C98.1289 130.262 97.861 130.316 97.59 130.32Z" fill="#D71921"/>
<path d="M70.38 94.98H7.68002C3.75879 94.98 0.580017 98.1588 0.580017 102.08V135.74C0.580017 139.661 3.75879 142.84 7.68002 142.84H70.38C74.3012 142.84 77.48 139.661 77.48 135.74V102.08C77.48 98.1588 74.3012 94.98 70.38 94.98Z" fill="white"/>
<path d="M70.39 143.34H7.68002C5.66518 143.337 3.73363 142.536 2.30893 141.111C0.884222 139.686 0.082663 137.755 0.0800171 135.74V102.08C0.082663 100.065 0.884222 98.1336 2.30893 96.7089C3.73363 95.2842 5.66518 94.4826 7.68002 94.48H70.39C72.4048 94.4826 74.3364 95.2842 75.7611 96.7089C77.1858 98.1336 77.9874 100.065 77.99 102.08V135.74C77.9874 137.755 77.1858 139.686 75.7611 141.111C74.3364 142.536 72.4048 143.337 70.39 143.34ZM7.68002 95.48C5.9304 95.4826 4.2532 96.1788 3.01603 97.416C1.77887 98.6532 1.08266 100.33 1.08002 102.08V135.74C1.08266 137.49 1.77887 139.167 3.01603 140.404C4.2532 141.641 5.9304 142.337 7.68002 142.34H70.39C72.1396 142.337 73.8168 141.641 75.054 140.404C76.2912 139.167 76.9874 137.49 76.99 135.74V102.08C76.9874 100.33 76.2912 98.6532 75.054 97.416C73.8168 96.1788 72.1396 95.4826 70.39 95.48H7.68002Z" fill="#D1D3D4"/>
<path d="M25.33 107.39H28.55C29.0434 107.377 29.535 107.455 30 107.62C30.3387 107.736 30.6466 107.927 30.9 108.18C31.1123 108.397 31.27 108.66 31.36 108.95C31.5334 109.483 31.5334 110.057 31.36 110.59C31.27 110.88 31.1123 111.143 30.9 111.36C30.6466 111.613 30.3387 111.804 30 111.92C29.535 112.085 29.0434 112.163 28.55 112.15H26.55V115.89H25.33V107.39ZM26.57 111.14H28.2C28.4413 111.14 28.6821 111.12 28.92 111.08C29.1393 111.053 29.3524 110.989 29.55 110.89C29.7357 110.794 29.8914 110.649 30 110.47C30.1114 110.253 30.1695 110.014 30.1695 109.77C30.1695 109.527 30.1114 109.287 30 109.07C29.8914 108.891 29.7357 108.746 29.55 108.65C29.3524 108.551 29.1393 108.487 28.92 108.46C28.6821 108.42 28.4413 108.4 28.2 108.4H26.57V111.14Z" fill="black"/>
<path d="M32.73 110.9C33.0622 110.613 33.4504 110.399 33.87 110.27C34.2862 110.132 34.7216 110.061 35.16 110.06C35.5487 110.052 35.9364 110.103 36.31 110.21C36.5999 110.3 36.871 110.443 37.11 110.63C37.3084 110.795 37.4659 111.004 37.57 111.24C37.6682 111.464 37.7193 111.706 37.72 111.95V114.86V115.41C37.72 115.41 37.72 115.74 37.72 115.89H36.72C36.72 115.6 36.72 115.31 36.72 115.03C36.4893 115.368 36.1714 115.638 35.8 115.81C35.1598 116.046 34.4639 116.088 33.8 115.93C33.5549 115.863 33.3243 115.751 33.12 115.6C32.9284 115.461 32.7711 115.279 32.66 115.07C32.5441 114.841 32.4857 114.587 32.49 114.33C32.4769 114.002 32.5718 113.679 32.76 113.41C32.9496 113.154 33.1961 112.945 33.48 112.8C33.8205 112.632 34.1847 112.517 34.56 112.46C34.9936 112.395 35.4315 112.361 35.87 112.36H36.72V112.12C36.719 111.972 36.6884 111.826 36.63 111.69C36.5657 111.544 36.4741 111.412 36.36 111.3C36.2312 111.176 36.0779 111.081 35.91 111.02C35.7001 110.952 35.4806 110.918 35.26 110.92C35.0617 110.918 34.8638 110.938 34.67 110.98C34.5126 111.016 34.3587 111.067 34.21 111.13C34.0803 111.188 33.9563 111.258 33.84 111.34L33.52 111.57L32.73 110.9ZM36 113.15C35.7169 113.136 35.4332 113.136 35.15 113.15C34.8842 113.169 34.622 113.223 34.37 113.31C34.1521 113.377 33.9509 113.489 33.78 113.64C33.7067 113.713 33.6493 113.801 33.6114 113.897C33.5735 113.993 33.556 114.097 33.56 114.2C33.5505 114.337 33.5779 114.475 33.6395 114.598C33.701 114.721 33.7944 114.825 33.91 114.9C34.2152 115.068 34.5625 115.144 34.91 115.12C35.1875 115.127 35.4634 115.076 35.72 114.97C35.9181 114.886 36.0958 114.761 36.2408 114.602C36.3858 114.443 36.4947 114.255 36.56 114.05C36.6194 113.859 36.6497 113.66 36.65 113.46V113.1L36 113.15Z" fill="black"/>
<path d="M45.55 115.84C45.5556 116.246 45.4738 116.648 45.31 117.02C45.1558 117.377 44.9234 117.695 44.63 117.95C44.3214 118.22 43.9607 118.425 43.57 118.55C43.1297 118.703 42.666 118.777 42.2 118.77C41.6549 118.774 41.1123 118.696 40.59 118.54C40.0772 118.375 39.604 118.106 39.2 117.75L39.99 116.84C40.2788 117.129 40.6176 117.362 40.99 117.53C41.374 117.687 41.7854 117.765 42.2 117.76C42.5641 117.769 42.9266 117.711 43.27 117.59C43.5252 117.488 43.7567 117.335 43.95 117.14C44.112 116.959 44.2315 116.743 44.3 116.51C44.3707 116.276 44.4077 116.034 44.41 115.79V115C44.1888 115.34 43.8723 115.608 43.5 115.77C43.1165 115.929 42.7052 116.011 42.29 116.01C41.8632 116.016 41.4391 115.941 41.04 115.79C40.6711 115.652 40.3317 115.445 40.04 115.18C39.7626 114.909 39.5419 114.586 39.3908 114.229C39.2397 113.871 39.1613 113.488 39.16 113.1C39.1595 112.7 39.2342 112.303 39.38 111.93C39.5219 111.567 39.7386 111.238 40.0159 110.964C40.2933 110.69 40.6252 110.477 40.99 110.34C41.4008 110.18 41.8391 110.102 42.28 110.11C42.6962 110.11 43.108 110.195 43.49 110.36C43.8563 110.507 44.1747 110.753 44.41 111.07V110.25H45.57L45.55 115.84ZM42.37 111.07C42.083 111.066 41.7978 111.117 41.53 111.22C41.2949 111.309 41.0805 111.445 40.9 111.62C40.7239 111.8 40.5876 112.014 40.5 112.25C40.3976 112.504 40.3466 112.776 40.35 113.05C40.3408 113.306 40.3849 113.56 40.4796 113.798C40.5743 114.036 40.7175 114.251 40.9 114.43C41.3163 114.766 41.8351 114.949 42.37 114.949C42.905 114.949 43.4238 114.766 43.84 114.43C44.0241 114.252 44.1683 114.037 44.2631 113.799C44.3579 113.561 44.4012 113.306 44.39 113.05C44.3916 112.777 44.3442 112.506 44.25 112.25C44.159 112.014 44.0193 111.799 43.84 111.62C43.6596 111.445 43.4451 111.309 43.21 111.22C42.9422 111.117 42.6571 111.066 42.37 111.07Z" fill="black"/>
<path d="M48.19 113.44C48.1881 113.677 48.2466 113.911 48.36 114.12C48.4773 114.322 48.6337 114.499 48.82 114.64C49.0176 114.792 49.2412 114.908 49.48 114.98C49.7322 115.06 49.9953 115.101 50.26 115.1C50.5894 115.108 50.9145 115.025 51.2 114.86C51.4778 114.698 51.7276 114.492 51.94 114.25L52.82 114.87C52.4836 115.254 52.0634 115.556 51.5917 115.752C51.1201 115.948 50.6097 116.033 50.1 116C49.6535 116.008 49.2095 115.933 48.79 115.78C48.4213 115.632 48.0824 115.419 47.79 115.15C47.5134 114.865 47.3018 114.524 47.17 114.15C47.0205 113.775 46.9458 113.374 46.95 112.97C46.9463 112.561 47.0281 112.156 47.19 111.78C47.3439 111.425 47.5685 111.105 47.85 110.84C48.1373 110.564 48.4775 110.35 48.85 110.21C49.6997 109.883 50.6403 109.883 51.49 110.21C51.8438 110.374 52.1603 110.609 52.42 110.9C52.6591 111.195 52.836 111.535 52.94 111.9C53.0476 112.253 53.1015 112.621 53.1 112.99V113.37L48.19 113.44ZM51.86 112.58C51.8528 112.355 51.8123 112.133 51.74 111.92C51.6661 111.726 51.5539 111.549 51.41 111.4C51.255 111.244 51.0671 111.124 50.86 111.05C50.6144 110.956 50.3527 110.912 50.09 110.92C49.8224 110.916 49.5569 110.967 49.31 111.07C49.0863 111.159 48.8824 111.292 48.71 111.46C48.5455 111.612 48.4129 111.796 48.32 112C48.2344 112.181 48.19 112.379 48.19 112.58H51.86Z" fill="black"/>
<path d="M8.20001 121.79H9.83001L14.83 128.79V121.79H16.07V130.29H14.56L9.47001 123.29V130.29H8.20001V121.79Z" fill="black"/>
<path d="M17.9 127.45C17.8948 127.046 17.9802 126.646 18.15 126.28C18.3198 125.924 18.5537 125.602 18.84 125.33C19.1336 125.06 19.472 124.844 19.84 124.69C20.2489 124.535 20.6828 124.457 21.12 124.46C21.557 124.459 21.9907 124.537 22.4 124.69C22.7685 124.843 23.107 125.059 23.4 125.33C23.6863 125.602 23.9202 125.924 24.09 126.28C24.2598 126.646 24.3452 127.046 24.34 127.45C24.3429 127.854 24.2576 128.253 24.09 128.62C23.9251 128.976 23.6905 129.296 23.4 129.56C23.107 129.831 22.7685 130.047 22.4 130.2C21.992 130.358 21.5575 130.436 21.12 130.43C20.6824 130.438 20.2475 130.36 19.84 130.2C19.472 130.046 19.1336 129.83 18.84 129.56C18.5495 129.296 18.3149 128.976 18.15 128.62C17.9824 128.253 17.8971 127.854 17.9 127.45ZM19.14 127.45C19.1392 127.72 19.1866 127.987 19.28 128.24C19.3689 128.475 19.505 128.69 19.68 128.87C19.8635 129.048 20.0812 129.188 20.32 129.28C20.8622 129.48 21.4578 129.48 22 129.28C22.2357 129.188 22.4501 129.048 22.63 128.87C22.8083 128.692 22.945 128.477 23.03 128.24C23.2164 127.726 23.2164 127.164 23.03 126.65C22.9424 126.414 22.8061 126.2 22.63 126.02C22.4495 125.845 22.2351 125.709 22 125.62C21.4578 125.42 20.8622 125.42 20.32 125.62C20.0818 125.709 19.8641 125.845 19.68 126.02C19.5072 126.202 19.3713 126.416 19.28 126.65C19.1858 126.906 19.1384 127.177 19.14 127.45Z" fill="black"/>
<path d="M29.16 125.54H27.49V128.12V128.59C27.4997 128.735 27.5335 128.877 27.59 129.01C27.6427 129.135 27.7337 129.24 27.85 129.31C28.0048 129.399 28.182 129.44 28.36 129.43C28.5032 129.439 28.6468 129.439 28.79 129.43C28.9293 129.408 29.0643 129.364 29.19 129.3V130.3C29.0193 130.379 28.8369 130.43 28.65 130.45C28.4802 130.461 28.3098 130.461 28.14 130.45C27.7985 130.464 27.4578 130.406 27.14 130.28C26.9201 130.186 26.7324 130.029 26.6 129.83C26.4787 129.644 26.4064 129.431 26.39 129.21C26.39 128.983 26.39 128.753 26.39 128.52V125.52H25V124.58H26.35V123H27.51V124.59H29.18L29.16 125.54Z" fill="black"/>
<path d="M34.55 121.79H40.3V122.87H35.79V125.54H40V126.62H35.8V130.29H34.55V121.79Z" fill="black"/>
<path d="M41.38 127.45C41.3748 127.046 41.4602 126.646 41.63 126.28C41.7998 125.924 42.0337 125.602 42.32 125.33C42.6129 125.059 42.9515 124.843 43.32 124.69C43.7293 124.537 44.163 124.459 44.6 124.46C45.0372 124.457 45.4711 124.535 45.88 124.69C46.248 124.844 46.5864 125.06 46.88 125.33C47.1663 125.602 47.4002 125.924 47.57 126.28C47.7398 126.646 47.8252 127.046 47.82 127.45C47.8229 127.854 47.7376 128.253 47.57 128.62C47.4051 128.976 47.1704 129.296 46.88 129.56C46.5864 129.83 46.248 130.046 45.88 130.2C45.4724 130.36 45.0376 130.438 44.6 130.43C44.1625 130.436 43.728 130.358 43.32 130.2C42.9515 130.047 42.6129 129.831 42.32 129.56C42.0295 129.296 41.7949 128.976 41.63 128.62C41.4624 128.253 41.3771 127.854 41.38 127.45ZM42.62 127.45C42.6192 127.72 42.6666 127.987 42.76 128.24C42.845 128.477 42.9816 128.692 43.16 128.87C43.3399 129.048 43.5543 129.188 43.79 129.28C44.3322 129.48 44.9278 129.48 45.47 129.28C45.7088 129.188 45.9264 129.048 46.11 128.87C46.285 128.69 46.4211 128.475 46.51 128.24C46.6964 127.726 46.6964 127.164 46.51 126.65C46.4187 126.416 46.2828 126.202 46.11 126.02C45.9259 125.845 45.7082 125.709 45.47 125.62C44.9278 125.42 44.3322 125.42 43.79 125.62C43.5549 125.709 43.3405 125.845 43.16 126.02C42.9839 126.2 42.8476 126.414 42.76 126.65C42.6658 126.906 42.6184 127.177 42.62 127.45Z" fill="black"/>
<path d="M54.78 130.29H53.62V129.41C53.4575 129.735 53.1897 129.996 52.86 130.15C52.4725 130.344 52.0433 130.44 51.61 130.43C51.319 130.432 51.0293 130.391 50.75 130.31C50.4946 130.224 50.2572 130.092 50.05 129.92C49.8386 129.732 49.6713 129.5 49.56 129.24C49.4308 128.923 49.3695 128.582 49.38 128.24V124.6H50.55V128C50.5407 128.232 50.5781 128.463 50.66 128.68C50.7288 128.854 50.8345 129.011 50.97 129.14C51.1009 129.254 51.2542 129.339 51.42 129.39C51.5886 129.442 51.7637 129.469 51.94 129.47C52.1711 129.47 52.4007 129.433 52.62 129.36C52.8218 129.286 53.0057 129.17 53.16 129.02C53.3185 128.846 53.4409 128.642 53.52 128.42C53.6139 128.147 53.658 127.859 53.65 127.57V124.6H54.81L54.78 130.29Z" fill="black"/>
<path d="M56.54 124.6H57.7V125.48C57.865 125.156 58.1321 124.896 58.46 124.74C58.8506 124.545 59.2834 124.448 59.72 124.46C60.0043 124.459 60.2873 124.5 60.56 124.58C60.8208 124.66 61.0624 124.793 61.27 124.97C61.4822 125.157 61.6496 125.39 61.76 125.65C61.8892 125.967 61.9505 126.308 61.94 126.65V130.31H60.78V126.95C60.7853 126.718 60.7445 126.487 60.66 126.27C60.594 126.097 60.4877 125.943 60.35 125.82C60.2197 125.703 60.0664 125.614 59.9 125.56C59.7311 125.511 59.5559 125.487 59.38 125.49C59.1527 125.487 58.9264 125.52 58.71 125.59C58.5035 125.666 58.3159 125.785 58.16 125.94C57.9995 126.109 57.8767 126.31 57.8 126.53C57.7109 126.804 57.667 127.091 57.67 127.38V130.31H56.51L56.54 124.6Z" fill="black"/>
<path d="M69.87 130.29H68.71V129.47C68.4747 129.787 68.1563 130.033 67.79 130.18C67.4079 130.345 66.9962 130.43 66.58 130.43C66.14 130.439 65.7023 130.364 65.29 130.21C64.9173 130.065 64.5774 129.848 64.29 129.57C64.0196 129.298 63.8055 128.975 63.66 128.62C63.5092 128.249 63.4344 127.851 63.44 127.45C63.4347 127.043 63.5094 126.638 63.66 126.26C63.8033 125.907 64.0178 125.587 64.29 125.32C64.5756 125.042 64.9163 124.828 65.29 124.69C65.7003 124.528 66.1389 124.45 66.58 124.46C67.0074 124.454 67.4309 124.543 67.82 124.72C68.1779 124.863 68.4869 125.106 68.71 125.42V121.22H69.87V130.29ZM66.69 129.43C66.977 129.434 67.2622 129.383 67.53 129.28C67.7657 129.188 67.9801 129.048 68.16 128.87C68.3383 128.692 68.475 128.477 68.56 128.24C68.7602 127.729 68.7602 127.161 68.56 126.65C68.4724 126.414 68.3361 126.2 68.16 126.02C67.9795 125.845 67.7651 125.709 67.53 125.62C66.9878 125.42 66.3922 125.42 65.85 125.62C65.6149 125.709 65.4005 125.845 65.22 126.02C65.0407 126.199 64.9011 126.414 64.81 126.65C64.6236 127.164 64.6236 127.726 64.81 128.24C64.8985 128.478 65.0385 128.693 65.22 128.87C65.3999 129.048 65.6143 129.188 65.85 129.28C66.1178 129.383 66.403 129.434 66.69 129.43Z" fill="black"/>
<path d="M295.68 69.8H234.2C231.035 69.8 228.47 72.3654 228.47 75.53V96.94C228.47 100.105 231.035 102.67 234.2 102.67H295.68C298.845 102.67 301.41 100.105 301.41 96.94V75.53C301.41 72.3654 298.845 69.8 295.68 69.8Z" fill="white"/>
<path d="M295.69 103.16H234.2C232.549 103.157 230.965 102.5 229.798 101.332C228.63 100.165 227.973 98.5815 227.97 96.93V75.53C227.973 73.8785 228.63 72.2954 229.798 71.1276C230.965 69.9599 232.549 69.3026 234.2 69.3H295.69C297.341 69.3026 298.925 69.9599 300.092 71.1276C301.26 72.2954 301.917 73.8785 301.92 75.53V96.93C301.917 98.5815 301.26 100.165 300.092 101.332C298.925 102.5 297.341 103.157 295.69 103.16ZM234.2 70.3C232.813 70.3 231.483 70.851 230.502 71.8318C229.521 72.8126 228.97 74.1429 228.97 75.53V96.93C228.97 98.3171 229.521 99.6473 230.502 100.628C231.483 101.609 232.813 102.16 234.2 102.16H295.69C297.077 102.16 298.407 101.609 299.388 100.628C300.369 99.6473 300.92 98.3171 300.92 96.93V75.53C300.92 74.1429 300.369 72.8126 299.388 71.8318C298.407 70.851 297.077 70.3 295.69 70.3H234.2Z" fill="#D1D3D4"/>
<path d="M251 91.17H242.4V88.17L248.94 78.54H254.6V88.17H256.67V91.17H254.6V93.92H251V91.17ZM251 88.17V80.83L246 88.17H251Z" fill="#D71921"/>
<path d="M257.67 86.23C257.67 81.23 260.67 78.23 265.01 78.23C269.35 78.23 272.32 81.23 272.32 86.23C272.32 91.23 269.32 94.23 265.01 94.23C260.7 94.23 257.67 91.22 257.67 86.23ZM268.75 86.23C268.75 82.84 267.33 81.17 265.01 81.17C262.69 81.17 261.24 82.84 261.24 86.23C261.24 89.62 262.66 91.29 265.01 91.29C267.36 91.29 268.75 89.62 268.75 86.23Z" fill="#D71921"/>
<path d="M281.85 91.17H273.21V88.17L279.75 78.54H285.42V88.17H287.49V91.17H285.42V93.92H281.85V91.17ZM281.85 88.17V80.83H281.8L276.8 88.17H281.85Z" fill="#D71921"/>
<path d="M47.18 32.63C47.0747 32.6308 46.9723 32.5955 46.89 32.53C46.7845 32.4503 46.7141 32.3328 46.6936 32.2022C46.673 32.0717 46.704 31.9382 46.78 31.83C48.57 29.38 50.78 25.83 49.13 23.01C49.0791 22.9197 49.0224 22.8328 48.96 22.75C47.1418 24.9461 44.9806 26.8338 42.56 28.34C41.2792 29.2671 39.7036 29.6939 38.13 29.54C37.7958 29.4723 37.4789 29.3371 37.1986 29.1428C36.9184 28.9486 36.6807 28.6992 36.5 28.41C36.2704 27.9959 36.128 27.5392 36.0816 27.0679C36.0352 26.5967 36.0857 26.121 36.23 25.67C36.3126 25.349 36.4195 25.0347 36.55 24.73C34.4466 26.8338 32.0684 28.6436 29.48 30.11C28.9205 30.47 28.2649 30.6513 27.6 30.63C27.0658 30.5191 26.5821 30.2379 26.2214 29.8285C25.8608 29.4192 25.6427 28.9039 25.6 28.36C25.544 27.3865 25.7513 26.4158 26.2 25.55C27.9596 21.7443 30.6879 18.4674 34.1118 16.0473C37.5357 13.6272 41.5352 12.1488 45.71 11.76C46.4539 9.89292 46.556 7.83144 46 5.90002C45.7275 4.95948 45.2158 4.1057 44.5147 3.42212C43.8136 2.73854 42.9471 2.24854 42 2.00001C40.192 1.78448 38.3615 2.1338 36.76 3.00002C28.1396 6.92339 21.0935 13.6383 16.76 22.06C16.4239 22.5895 16.2437 23.2029 16.24 23.83C16.2565 23.9714 16.3013 24.108 16.3717 24.2317C16.4421 24.3554 16.5368 24.4637 16.65 24.55C16.7082 24.6007 16.7771 24.6378 16.8514 24.6585C16.9258 24.6793 17.0039 24.6832 17.08 24.67C17.2126 24.6448 17.3498 24.6733 17.4613 24.7493C17.5729 24.8252 17.6498 24.9424 17.675 25.075C17.7002 25.2076 17.6716 25.3448 17.5957 25.4564C17.5197 25.568 17.4026 25.6448 17.27 25.67C17.0513 25.7195 16.8246 25.721 16.6053 25.6744C16.3861 25.6278 16.1795 25.5342 16 25.4C15.5631 25.0552 15.2793 24.5523 15.21 24C15.1831 23.1748 15.4024 22.3602 15.84 21.66C20.2842 13.0251 27.5101 6.14099 36.35 2.12001C38.09 1.34001 40.14 0.580015 42.18 1.00001C43.3149 1.27606 44.3575 1.84532 45.2034 2.65084C46.0493 3.45635 46.6688 4.46988 47 5.59001C47.5721 7.59497 47.4986 9.72915 46.79 11.69H48.79C49.4325 11.6939 50.0643 11.8553 50.63 12.16C51.93 12.97 52 14.69 51.93 15.64C51.7256 17.8927 50.9172 20.0484 49.59 21.88C49.7412 22.0661 49.8783 22.2633 50 22.47C51.94 25.77 49.56 29.71 47.6 32.39C47.5567 32.4629 47.4953 32.5234 47.4217 32.5655C47.348 32.6075 47.2648 32.6298 47.18 32.63ZM45.27 12.8C41.3567 13.2516 37.6257 14.7033 34.4363 17.0152C31.2469 19.3272 28.7065 22.4214 27.06 26C26.6923 26.7058 26.5132 27.4946 26.54 28.29C26.5593 28.6168 26.6836 28.9286 26.8944 29.1791C27.1052 29.4295 27.3913 29.6052 27.71 29.68C28.173 29.676 28.6248 29.537 29.01 29.28C33.12 27.05 36.42 23.59 39.6 20.28C41.64 18 43.93 15.64 45.27 12.8ZM44.44 20.8C43.9295 20.7984 43.4203 20.8487 42.92 20.95C41.6024 21.1855 40.3738 21.7753 39.3661 22.6562C38.3583 23.5371 37.6095 24.6757 37.2 25.95C37.0907 26.2766 37.0478 26.6217 37.0735 26.9651C37.0993 27.3085 37.1933 27.6434 37.35 27.95C37.4589 28.1278 37.6044 28.2804 37.7768 28.3976C37.9492 28.5148 38.1446 28.5941 38.35 28.63C39.6527 28.7368 40.9515 28.3829 42.02 27.63C44.406 26.1156 46.5218 24.2126 48.28 22C47.1829 21.1522 45.826 20.7105 44.44 20.75V20.8ZM44.44 19.8C46.0445 19.7556 47.6156 20.264 48.89 21.24C50.0395 19.5827 50.7295 17.6505 50.89 15.64C50.89 15.06 50.89 13.64 50.06 13.09C49.6359 12.874 49.1658 12.7642 48.69 12.77C47.9206 12.725 47.1493 12.725 46.38 12.77C45.05 15.9 42.64 18.47 40.47 20.77C41.1761 20.4245 41.9216 20.166 42.69 20C43.2564 19.8571 43.8362 19.7733 44.42 19.75L44.44 19.8Z" fill="#D1D3D4"/>
</svg>
