<svg width="39" height="40" viewBox="0 0 39 40" fill="none" xmlns="http://www.w3.org/2000/svg">
<path d="M19.0992 0C18.959 0.000213596 18.8224 0.0440171 18.7082 0.12534C18.594 0.206663 18.508 0.321479 18.462 0.453875L17.2521 3.92913L13.5723 4.0042C13.4325 4.00741 13.2972 4.05392 13.1849 4.1373C13.0726 4.22068 12.989 4.33684 12.9456 4.46973C12.9022 4.60263 12.9011 4.74573 12.9424 4.87928C12.9838 5.01284 13.0656 5.13027 13.1765 5.21539L16.1108 7.44118L15.0461 10.9639C15.0062 11.0978 15.0088 11.2408 15.0536 11.3732C15.0984 11.5056 15.1831 11.6208 15.2962 11.703C15.4092 11.7852 15.5449 11.8303 15.6847 11.8322C15.8245 11.834 15.9614 11.7925 16.0765 11.7133L19.0992 9.61157L22.1193 11.7133C22.2344 11.7935 22.3717 11.8359 22.512 11.8345C22.6523 11.8332 22.7887 11.7882 22.9023 11.7058C23.0159 11.6234 23.101 11.5077 23.1458 11.3748C23.1906 11.2418 23.1929 11.0982 23.1524 10.9639L22.0876 7.44118L25.0219 5.21539C25.1329 5.13027 25.2147 5.01284 25.256 4.87928C25.2974 4.74573 25.2963 4.60263 25.2529 4.46973C25.2094 4.33684 25.1258 4.22068 25.0136 4.1373C24.9013 4.05392 24.7659 4.00741 24.6261 4.0042L20.9464 3.92913L19.7365 0.453875C19.6905 0.321479 19.6045 0.206663 19.4903 0.12534C19.3761 0.0440171 19.2394 0.000213596 19.0992 0ZM19.0992 2.72981L19.8236 4.81574C19.8688 4.94604 19.9529 5.05937 20.0644 5.14051C20.176 5.22165 20.3097 5.2667 20.4476 5.26962L22.655 5.31583L20.8962 6.64843C20.7863 6.73171 20.7045 6.84664 20.6618 6.97778C20.6191 7.10892 20.6176 7.24998 20.6574 7.382L21.296 9.493L19.4858 8.23299C19.3724 8.15392 19.2375 8.11152 19.0992 8.11152C18.961 8.11152 18.8261 8.15392 18.7127 8.23299L16.9025 9.493L17.541 7.382C17.5809 7.24998 17.5794 7.10892 17.5367 6.97778C17.494 6.84664 17.4122 6.73171 17.3022 6.64843L15.5435 5.31583L17.7495 5.26962C17.8874 5.2667 18.0212 5.22165 18.1327 5.14051C18.2443 5.05938 18.3283 4.94604 18.3736 4.81574L19.0992 2.72981ZM5.40669 4.98198C5.26715 4.98214 5.13112 5.02603 5.01741 5.10759C4.90371 5.18914 4.81797 5.30432 4.77207 5.43718L3.75483 8.38731L0.658232 8.4519C0.518733 8.45495 0.383626 8.50165 0.271615 8.58554C0.159604 8.66943 0.0762327 8.78636 0.033043 8.92013C-0.0101467 9.05391 -0.0110178 9.19791 0.0305506 9.33221C0.0721189 9.4665 0.15407 9.58445 0.265058 9.66971L2.7323 11.5577L1.83644 14.5448C1.79566 14.6797 1.79758 14.824 1.84194 14.9578C1.88629 15.0915 1.97088 15.208 2.08393 15.291C2.19699 15.374 2.33289 15.4194 2.47274 15.421C2.61259 15.4225 2.74943 15.38 2.86424 15.2995L5.40669 13.5144L7.94914 15.2995C8.06395 15.38 8.20079 15.4225 8.34064 15.421C8.48049 15.4194 8.61639 15.374 8.72945 15.291C8.8425 15.208 8.92709 15.0915 8.97145 14.9578C9.0158 14.824 9.01772 14.6797 8.97694 14.5448L8.08107 11.5577L10.5483 9.66971C10.6593 9.58445 10.7413 9.4665 10.7828 9.33221C10.8244 9.19791 10.8235 9.05391 10.7803 8.92013C10.7371 8.78636 10.6538 8.66943 10.5418 8.58554C10.4298 8.50165 10.2946 8.45495 10.1551 8.4519L7.05855 8.38731L6.04131 5.43718C5.99541 5.30432 5.90967 5.18914 5.79597 5.10759C5.68227 5.02603 5.54623 4.98214 5.40669 4.98198ZM32.7733 4.98709C32.6339 4.98715 32.498 5.03085 32.3843 5.11215C32.2706 5.19346 32.1848 5.30835 32.1387 5.44096L31.1214 8.39108L28.0249 8.45568C27.8854 8.45873 27.7502 8.50543 27.6382 8.58932C27.5262 8.67321 27.4429 8.79014 27.3997 8.92391C27.3565 9.05769 27.3556 9.20169 27.3972 9.33599C27.4387 9.47028 27.5207 9.58823 27.6317 9.67349L30.0989 11.5615L29.2031 14.5486C29.1623 14.6835 29.1642 14.8278 29.2086 14.9615C29.2529 15.0953 29.3375 15.2118 29.4506 15.2948C29.5636 15.3778 29.6995 15.4232 29.8394 15.4247C29.9792 15.4263 30.1161 15.3838 30.2309 15.3033L32.7733 13.5182L35.3158 15.3033C35.4306 15.3838 35.5674 15.4263 35.7073 15.4247C35.8471 15.4232 35.983 15.3778 36.0961 15.2948C36.2091 15.2117 36.2937 15.0953 36.3381 14.9615C36.3824 14.8278 36.3843 14.6835 36.3436 14.5486L35.4477 11.5615L37.9149 9.67349C38.0259 9.58822 38.1079 9.47028 38.1495 9.33598C38.191 9.20169 38.1901 9.05768 38.147 8.92391C38.1038 8.79014 38.0204 8.67321 37.9084 8.58932C37.7964 8.50543 37.6613 8.45873 37.5218 8.45568L34.4252 8.39108L33.4079 5.44096C33.3618 5.30835 33.276 5.19346 33.1623 5.11215C33.0486 5.03085 32.9127 4.98715 32.7733 4.98709ZM5.40669 7.72614L5.94104 9.27905C5.98596 9.41003 6.0696 9.524 6.18071 9.60562C6.29181 9.68723 6.42504 9.73258 6.56247 9.73555L8.19191 9.76977L6.89495 10.7606C6.78536 10.8444 6.70385 10.9599 6.66139 11.0918C6.61893 11.2237 6.61756 11.3655 6.65746 11.4982L7.12849 13.0722L5.79063 12.1328C5.67792 12.0538 5.54395 12.0115 5.40669 12.0115C5.26944 12.0115 5.13546 12.0538 5.02275 12.1328L3.6849 13.0722L4.15592 11.4982C4.19582 11.3655 4.19445 11.2237 4.15199 11.0918C4.10953 10.9599 4.02801 10.8444 3.91842 10.7606L2.62147 9.76977L4.25091 9.73555C4.38834 9.73258 4.52157 9.68723 4.63267 9.60562C4.74377 9.524 4.82741 9.41003 4.87234 9.27905L5.40669 7.72614ZM32.7733 7.72869L33.3077 9.2816C33.3526 9.41259 33.4362 9.52656 33.5473 9.60817C33.6584 9.68979 33.7917 9.73513 33.9291 9.73811L35.5585 9.77232L34.2616 10.7645C34.1522 10.8481 34.0709 10.9635 34.0284 11.0951C33.986 11.2267 33.9845 11.3682 34.0241 11.5007L34.4951 13.0747L33.1572 12.1353C33.0445 12.0563 32.9106 12.014 32.7733 12.014C32.636 12.014 32.5021 12.0563 32.3894 12.1353L31.0515 13.0747L31.5225 11.5007C31.5621 11.3682 31.5606 11.2267 31.5182 11.0951C31.4757 10.9635 31.3944 10.8481 31.285 10.7645L29.9881 9.77232L31.6175 9.73811C31.755 9.73513 31.8882 9.68978 31.9993 9.60817C32.1104 9.52655 32.194 9.41259 32.239 9.2816L32.7733 7.72869ZM18.3089 14.3467C11.4611 14.3467 5.89618 19.9137 5.89618 26.7634C5.89618 30.2859 7.36826 33.4685 9.72899 35.7299C9.7499 35.753 9.77239 35.7746 9.79628 35.7945C12.0195 37.8926 15.0161 39.1801 18.3089 39.1801C21.5911 39.1801 24.5783 37.9003 26.8005 35.8143C26.8527 35.7771 26.8993 35.7327 26.939 35.6823C29.2722 33.424 30.7256 30.2612 30.7256 26.7633C30.7256 19.9136 25.1568 14.3467 18.3089 14.3467ZM18.3089 15.6978C24.4264 15.6978 29.3733 20.6436 29.3733 26.7634C29.3733 29.53 28.363 32.0567 26.6896 33.9949C25.6977 31.5886 23.6845 29.7134 21.1865 28.8863C22.5494 27.9679 23.4492 26.4186 23.4492 24.6643C23.4492 21.8509 21.1357 19.5583 18.3089 19.5583C15.4822 19.5583 13.1726 21.8509 13.1726 24.6643C13.1726 26.4186 14.0699 27.9679 15.4314 28.8863C12.9342 29.7136 10.9234 31.5894 9.93217 33.9963C8.25889 32.0578 7.24855 29.531 7.24855 26.7634C7.24855 20.6436 12.1915 15.6978 18.3089 15.6978ZM18.3089 20.9093C20.4112 20.9093 22.0982 22.5868 22.0982 24.6643C22.0982 26.7418 20.4112 28.414 18.3089 28.414C16.2067 28.414 14.5236 26.7418 14.5236 24.6643C14.5236 22.5868 16.2067 20.9093 18.3089 20.9093ZM18.3089 29.7756C21.757 29.7756 24.6452 31.9876 25.6394 35.0557C23.6881 36.7818 21.1231 37.8291 18.3089 37.8291C15.4959 37.8291 12.931 36.7831 10.9811 35.0583C11.974 31.9888 14.8598 29.7756 18.3089 29.7756Z" fill="#D71921"/>
</svg>
