<svg width="117" height="100" viewBox="0 0 117 100" fill="none" xmlns="http://www.w3.org/2000/svg">
<mask id="mask0_350_2" style="mask-type:luminance" maskUnits="userSpaceOnUse" x="0" y="0" width="117" height="100">
<path d="M117 0H0V99.0385H117V0Z" fill="white"/>
</mask>
<g mask="url(#mask0_350_2)">
<path d="M102.905 77.3602H4.93945C2.22027 77.3602 0.0249634 75.1649 0.0249634 72.4456V5.08916C0.0249634 2.36995 2.22027 0.174637 4.93945 0.174637H102.905C105.624 0.174637 107.819 2.36995 107.819 5.08916V72.4456C107.794 75.1649 105.599 77.3602 102.905 77.3602ZM5.76269 71.6222H102.057V5.93733H5.76269V71.6222Z" fill="#D71921"/>
<path d="M46.0514 28.5639L37.4698 48.9702H31.8568L27.6907 32.6551C27.4912 31.6323 27.1918 31.333 26.4683 30.8091C25.246 30.0857 23.1006 29.4869 21.2545 29.0628L21.3543 28.4392H30.3351C31.4577 28.4392 32.4805 29.2624 32.7798 30.4848L35.025 42.3095L40.5382 28.4392L46.0514 28.5639ZM67.9044 42.3344C67.9044 36.921 60.4458 36.6216 60.5456 34.2766C60.5456 33.5532 61.2686 32.7549 62.7907 32.5304C63.5138 32.4306 65.6592 32.3308 68.0042 33.4534L68.9274 29.1626C67.7053 28.6637 65.9586 28.2396 64.0378 28.2396C58.8238 28.2396 55.1569 30.9837 55.1569 34.9752C55.1569 37.9438 57.8013 39.5654 59.7471 40.4884C61.7926 41.5112 62.4913 42.1099 62.4913 43.0329C62.4913 44.3551 60.8699 44.9787 59.3229 45.0786C56.6785 45.0786 55.132 44.3551 53.9096 43.7564L52.8868 48.2468C54.1092 48.7457 56.3546 49.2696 58.6991 49.3693C64.2125 49.2945 67.9044 46.5255 67.9044 42.3344ZM81.6749 48.9702H86.5645L82.2737 28.5639H77.7834C76.7609 28.5639 75.9374 29.1875 75.5382 30.0857L67.5805 48.9702H73.0934L74.2163 45.9018H80.9518L81.6749 48.9702ZM75.7628 41.7357L78.507 34.0771L80.1284 41.7357H75.7628ZM53.6102 28.5639L49.2196 48.9702H43.906L48.2966 28.5639H53.6102Z" fill="#D71921"/>
<path d="M93.2259 98.8139C106.356 98.8139 117 88.1702 117 75.0396C117 61.9095 106.356 51.2655 93.2259 51.2655C80.0959 51.2655 69.4522 61.9095 69.4522 75.0396C69.4522 88.1702 80.0959 98.8139 93.2259 98.8139Z" fill="#D71921"/>
<path d="M90.2576 86.6398L79.1065 75.4888L82.1003 72.52L90.2576 80.6529L108.095 62.8656L111.039 65.8344L90.2576 86.6398Z" fill="white"/>
</g>
</svg>
