<svg width="32" height="22" viewBox="0 0 32 22" fill="none" xmlns="http://www.w3.org/2000/svg">
<path d="M2 3.46436H30C30.8281 3.46436 31.5 2.79297 31.5 1.96436C31.5 1.13575 30.8281 0.464363 30 0.464363H2C1.17139 0.464363 0.5 1.13575 0.5 1.96436C0.5 2.79297 1.17139 3.46436 2 3.46436ZM30 9.5H2C1.17139 9.5 0.5 10.1714 0.5 11C0.5 11.8286 1.17139 12.5 2 12.5H30C30.8281 12.5 31.5 11.8286 31.5 11C31.5 10.1714 30.8281 9.5 30 9.5ZM30 18.5356H2C1.17139 18.5356 0.5 19.207 0.5 20.0356C0.5 20.8643 1.17139 21.5356 2 21.5356H30C30.8281 21.5356 31.5 20.8643 31.5 20.0356C31.5 19.207 30.8281 18.5356 30 18.5356Z" fill="#D71921"/>
</svg>
