<svg width="200" height="200" viewBox="0 0 200 200" fill="none" xmlns="http://www.w3.org/2000/svg">
<path d="M173.087 27.8539H162.797V17.5637C162.797 15.5551 161.169 13.927 159.16 13.927H148.87V3.63672C148.87 1.62813 147.243 0 145.234 0H26.9133C24.9043 0 23.2766 1.62852 23.2766 3.63672V168.509C23.2766 170.518 24.9043 172.146 26.9133 172.146H37.2031V182.436C37.2031 184.445 38.8308 186.073 40.8398 186.073H51.1297V196.362C51.1297 198.371 52.7574 199.999 54.7664 199.999H173.087C175.096 199.999 176.723 198.371 176.723 196.362V31.4906C176.724 29.482 175.096 27.8539 173.087 27.8539ZM30.55 164.873V7.27383H141.596V164.873H30.55ZM44.4773 178.799V172.146H145.233C147.242 172.146 148.87 170.518 148.87 168.509V21.2008H155.523V178.8L44.4773 178.799ZM169.45 192.726H58.4035V186.073H159.16C161.169 186.073 162.797 184.445 162.797 182.436V35.1277H169.45V192.726Z" fill="#D71921"/>
<path d="M105.973 37.3406H66.1734C64.1645 37.3406 62.5367 38.9691 62.5367 40.9773C62.5367 42.9855 64.1645 44.6141 66.1734 44.6141H105.973C107.982 44.6141 109.61 42.9855 109.61 40.9773C109.61 38.9691 107.982 37.3406 105.973 37.3406Z" fill="#D71921"/>
<path d="M122.441 55.3793H49.7062C47.6973 55.3793 46.0695 57.0078 46.0695 59.016C46.0695 61.0242 47.6973 62.6527 49.7062 62.6527H122.441C124.45 62.6527 126.077 61.0242 126.077 59.016C126.077 57.0078 124.449 55.3793 122.441 55.3793Z" fill="#D71921"/>
<path d="M122.441 73.4172H49.7062C47.6973 73.4172 46.0695 75.0457 46.0695 77.0539C46.0695 79.0621 47.6973 80.6906 49.7062 80.6906H122.441C124.45 80.6906 126.077 79.0621 126.077 77.0539C126.077 75.0457 124.449 73.4172 122.441 73.4172Z" fill="#D71921"/>
<path d="M122.441 91.4551H49.7062C47.6973 91.4551 46.0695 93.0836 46.0695 95.0918C46.0695 97.1 47.6973 98.7285 49.7062 98.7285H122.441C124.45 98.7285 126.077 97.1 126.077 95.0918C126.077 93.0836 124.449 91.4551 122.441 91.4551Z" fill="#D71921"/>
<path d="M122.441 109.493H49.7062C47.6973 109.493 46.0695 111.122 46.0695 113.13C46.0695 115.138 47.6973 116.767 49.7062 116.767H122.441C124.45 116.767 126.077 115.138 126.077 113.13C126.077 111.122 124.449 109.493 122.441 109.493Z" fill="#D71921"/>
<path d="M122.441 127.531H49.7062C47.6973 127.531 46.0695 129.16 46.0695 131.168C46.0695 133.176 47.6973 134.805 49.7062 134.805H122.441C124.45 134.805 126.077 133.176 126.077 131.168C126.077 129.16 124.449 127.531 122.441 127.531Z" fill="#D71921"/>
</svg>
