<svg width="185" height="236" viewBox="0 0 185 236" fill="none" xmlns="http://www.w3.org/2000/svg">
<path d="M141.7 0.608421C140.3 1.00842 110.7 8.10842 76 16.5084C34.6 26.6084 11.9 32.3084 10.1 33.1084C6.5 34.8084 3.3 38.0084 1.5 41.8084L0 44.9084V133.808V222.708L1.3 225.408C3.3 229.608 6 232.208 10.1 234.308L13.7 236.108H92.1H170.5L173.7 234.608C177.7 232.708 181.1 229.408 182.9 225.608L184.3 222.708L184.4 134.808C184.5 37.1084 184.7 44.3084 181.3 39.1084C178 34.1084 172.8 31.4084 165.6 31.0084L161.2 30.7084L161.1 20.4084C161 10.3084 161 10.1084 159.7 7.70842C156.4 1.30842 149.8 -1.29158 141.7 0.608421ZM169.8 38.8084C172.7 39.8084 174.8 41.6084 176.2 44.2084L177.5 46.5084V133.508C177.5 205.408 177.4 220.808 176.9 222.108C175.9 224.608 173.7 226.808 171.1 228.008L168.7 229.108H92.2H15.7L13.3 228.008C10.7 226.808 8.5 224.608 7.5 222.108C7 220.808 6.9 205.508 6.9 133.508V46.5084L8.2 44.2084C9.6 41.6084 11.7 39.8084 14.4 38.8084C17.2 37.8084 167 37.7084 169.8 38.8084Z" fill="#D71921"/>
<path d="M80.5 52.8084C68.9 55.3084 59.2 60.5084 50.7 69.0084C38.8 80.9084 33.1 95.7084 33.7 112.608C34.7 139.908 53.7 162.008 81 167.908C86.2 169.008 98.2 169.008 103.4 167.908C115.1 165.408 124.4 160.508 132.7 152.508C143.9 141.808 150 128.208 150.6 112.608C151.2 95.7084 145.5 80.9084 133.6 69.0084C125.1 60.5084 115.4 55.2084 103.6 52.8084C97.3 51.5084 86.7 51.5084 80.5 52.8084ZM96.7 59.9084C101.2 61.9084 105.9 67.9084 109.1 75.1084C111 79.5084 111.1 80.4084 109.7 80.4084C109.1 80.4084 105 80.6084 100.6 80.9084C92.1 81.5084 74.8 80.8084 73.9 79.9084C73.4 79.4084 75.9 73.1084 78.2 69.3084C80.6 65.3084 84.2 61.5084 87 60.2084C90.1 58.7084 93.9 58.6084 96.7 59.9084ZM74.6 62.1084C74.6 62.2084 74.1 63.1084 73.5 63.9084C72 65.9084 68.9 72.2084 67.5 76.0084C66.9 77.7084 66.2 79.0084 65.9 79.0084C64.8 79.0084 55.3 76.6084 54.6 76.1084C53 75.1084 63.9 66.5084 70.9 63.3084C73.9 61.9084 74.6 61.7084 74.6 62.1084ZM113.4 63.2084C117.8 65.2084 123.8 69.3084 127.5 72.7084C130 75.1084 130.5 75.7084 129.9 76.1084C129.2 76.6084 119.7 79.0084 118.6 79.0084C118.3 79.0084 117.6 77.7084 117 76.0084C115.7 72.5084 112.8 66.6084 111.1 64.1084C109.2 61.3084 109.2 61.3084 113.4 63.2084ZM54.5 83.5084C56.7 84.1084 59.8 84.9084 61.4 85.2084C64.2 85.8084 64.2 85.8084 64 87.2084C63.2 92.6084 62.2 100.608 62 103.308L61.7 106.508H51.1H40.6L40.9 103.808C41.7 97.6084 44.2 90.0084 47.2 84.7084C48.4 82.7084 49.2 81.8084 49.6 82.0084C50.1 82.3084 52.3 82.9084 54.5 83.5084ZM137 84.8084C140.1 90.3084 142.6 97.7084 143.4 103.908L143.7 106.608H133.3H122.8L122.5 103.408C122.3 100.708 121.3 92.7084 120.5 87.3084L120.3 85.8084L124.2 85.0084C126.3 84.5084 129.6 83.7084 131.5 83.0084C133.4 82.4084 135.1 81.9084 135.2 81.9084C135.2 81.9084 136.1 83.2084 137 84.8084ZM92.2 87.8084C98.9 87.8084 106.3 87.6084 108.7 87.4084L113 87.0084L113.6 89.5084C114.3 92.5084 115.5 102.308 115.5 104.708V106.508H92.1H68.7L69 102.308C69.3 97.9084 70 93.5084 70.8 89.4084L71.3 86.9084L75.6 87.3084C78.1 87.6084 85.5 87.8084 92.2 87.8084ZM61.9 117.008C62.5 123.208 63.2 128.908 63.8 131.808L64.4 134.808L61.7 135.308C60.2 135.608 56.8 136.508 54 137.308C48.1 139.008 48.9 139.408 45.6 132.608C43.5 128.108 41.5 121.608 40.9 116.608L40.6 113.908H51.1H61.6L61.9 117.008ZM115.4 118.208C115.1 123.008 113.8 131.008 113.2 132.708C112.8 133.608 112.6 133.708 110.2 133.308C104.8 132.508 87.5 132.308 79.6 132.908C75.3 133.208 71.6 133.408 71.5 133.208C71 132.808 69.5 122.908 69.1 118.208L68.8 113.808H92.3H115.8L115.4 118.208ZM143.4 116.508C142.8 121.508 140.9 127.908 138.7 132.508C135.4 139.308 136.1 138.908 130.3 137.208C127.5 136.408 124.1 135.508 122.6 135.208L119.9 134.708L120.5 131.708C121.1 128.808 121.8 123.208 122.4 116.908L122.7 113.708H133.3H143.8L143.4 116.508ZM106.6 140.008C108.6 140.208 110.5 140.508 110.6 140.708C111 141.108 108.6 147.008 106.6 150.508C104.2 154.608 100.1 158.908 97.4 160.308C94.1 162.008 92.2 162.208 89 161.308C83.9 159.808 77.6 152.208 74.5 143.808C73.9 142.308 73.6 140.908 73.8 140.808C74.7 139.708 99.2 139.208 106.6 140.008ZM68.1 146.208C69.1 148.808 71 152.608 72.2 154.608C73.5 156.608 74.4 158.408 74.3 158.508C74 158.808 66.1 154.808 63.2 152.808C60.2 150.808 54.1 145.408 54.1 144.708C54.1 144.308 60.2 142.608 66 141.408C66.1 141.508 67 143.608 68.1 146.208ZM125.5 143.108C128 143.708 130.1 144.308 130.3 144.508C130.7 144.908 124.7 150.508 121.3 152.808C118.3 154.808 110.4 158.808 110.1 158.508C110 158.408 110.9 156.608 112.1 154.608C113.4 152.608 115.2 148.808 116.2 146.208C118.4 140.808 117.4 141.108 125.5 143.108Z" fill="#D71921"/>
<path d="M104.2 184.308C99.9 185.808 97.9 188.408 97.9 192.508C97.9 196.908 99.8 198.808 106.6 201.608C110.2 203.108 111.4 204.508 110.9 206.408C110.2 209.008 106.3 209.708 101.3 208.208L98.5 207.308L97.9 209.908C97.2 212.808 97.3 212.908 100.3 213.808C102.4 214.408 108.6 214.408 110.8 213.808C113.4 213.108 115.6 211.408 116.9 209.308C117.8 207.808 117.9 206.908 117.8 204.708C117.6 200.708 116.2 199.208 109.9 196.108C105.1 193.808 104.8 193.508 104.7 192.008C104.5 189.708 106.1 188.808 110.2 189.108C112 189.208 113.9 189.508 114.4 189.708C115.3 189.908 115.5 189.708 116 187.608C116.4 186.108 116.5 185.008 116.2 184.708C115.6 184.108 111.2 183.308 108.7 183.308C107.6 183.408 105.6 183.808 104.2 184.308Z" fill="#D71921"/>
<path d="M131.8 184.208C127.5 185.808 125.5 188.308 125.5 192.408C125.5 196.608 127.5 198.808 134.2 201.608C137.8 203.108 139.1 204.608 138.6 206.408C137.9 208.908 133.5 209.708 128.9 208.108C127.1 207.508 126.3 207.408 126.2 207.808C125.9 208.808 125 212.108 125 212.408C125 213.708 134.6 214.808 138.1 213.808C140.4 213.208 142.9 211.608 144.2 209.808C145.3 208.208 145.8 204.408 145.1 202.208C144.3 199.808 142.8 198.508 137.3 195.908C132.8 193.708 132.4 193.408 132.3 192.008C132.1 189.708 133.7 188.808 137.8 189.108C139.6 189.208 141.5 189.508 142 189.708C142.9 190.008 143 189.708 143.7 187.408L144.4 184.808L142.9 184.308C140.1 183.308 134.6 183.308 131.8 184.208Z" fill="#D71921"/>
<path d="M39.7 184.208C38.9 184.408 38.8 185.508 38.8 199.408V214.408L42 214.308L45.2 214.208L45.3 208.808L45.4 203.508H47.9C55.2 203.508 60 199.508 60.1 193.408C60.1 190.508 59.5 188.908 57.6 186.908C55.5 184.708 52.5 183.908 45.9 184.008C43 183.908 40.1 184.008 39.7 184.208ZM51 189.308C52.9 190.108 53.6 191.308 53.6 193.408C53.6 196.408 51.5 198.208 47.6 198.208H45.5V193.808C45.5 191.308 45.6 189.208 45.8 189.008C46.4 188.408 49.3 188.508 51 189.308Z" fill="#D71921"/>
<path d="M70.8 189.908C66.6 203.408 63.6 213.308 63.6 213.808C63.6 214.108 64.9 214.308 66.9 214.308H70.2L71 211.508C72.6 205.808 72 206.408 76.9 206.308C80.2 206.208 81.3 206.308 81.5 206.808C81.6 207.108 82.2 209.008 82.7 210.908L83.7 214.308H87.3C90.5 214.308 90.9 214.208 90.6 213.408C90.5 213.008 88.4 206.108 85.9 198.208L81.4 183.808H77H72.6L70.8 189.908ZM78.4 194.608C79.2 197.508 80 200.208 80.1 200.608C80.3 201.408 80 201.508 77 201.508C73.7 201.508 73.6 201.508 73.9 200.408C74 199.808 74.8 197.108 75.5 194.308C76.2 191.508 76.9 189.308 76.9 189.308C76.9 189.308 77.6 191.708 78.4 194.608Z" fill="#D71921"/>
</svg>
