<svg width="74" height="124" viewBox="0 0 74 124" fill="none" xmlns="http://www.w3.org/2000/svg">
<g clip-path="url(#clip0_584_18)">
<path fill-rule="evenodd" clip-rule="evenodd" d="M59.57 0.5C63.29 0.5 66.64 2.02 69.09 4.45C71.53 6.89 73.04 10.26 73.04 13.97C73.04 45.96 73.05 77.92 73.05 109.9C73.05 113.62 71.53 116.97 69.1 119.42C66.66 121.86 63.29 123.37 59.58 123.37H13.97C10.25 123.37 6.9 121.85 4.45 119.42C2.02 116.99 0.5 113.62 0.5 109.91V13.97C0.5 10.25 2.02 6.9 4.45 4.45C6.98 1.93 10.4 0.5 13.97 0.5H59.57ZM69.17 17.44H4.38V104.48H69.18C69.19 75.46 69.17 46.47 69.17 17.44ZM36.78 108.71C39.82 108.71 42.3 111.19 42.3 114.23C42.3 117.27 39.82 119.76 36.78 119.76C33.74 119.76 31.26 117.28 31.26 114.23C31.25 111.19 33.72 108.71 36.78 108.71Z" fill="#00CC99"/>
<path d="M10.44 28.91H20.45C22.63 28.91 24.26 29.43 25.35 30.46C26.43 31.5 26.98 32.97 26.98 34.9C26.98 36.86 26.39 38.41 25.2 39.51C24.02 40.62 22.21 41.17 19.78 41.17H16.48V48.37H10.44V28.91ZM16.48 37.23H17.96C19.13 37.23 19.95 37.03 20.42 36.62C20.89 36.22 21.13 35.7 21.13 35.07C21.13 34.45 20.93 33.94 20.51 33.51C20.1 33.09 19.33 32.87 18.2 32.87H16.48V37.23ZM38.86 45.17H32.04L31.07 48.38H24.93L32.26 28.91H38.85L46.14 48.38H39.84L38.86 45.17ZM37.58 40.95L35.46 33.95L33.32 40.95H37.58ZM42.85 28.91H49.53L53.47 35.47L57.39 28.91H64.03L56.47 40.23V48.38H50.43V40.23L42.85 28.91Z" fill="#00CC99"/>
<path fill-rule="evenodd" clip-rule="evenodd" d="M37.4 67.03H37.6C39.14 67.03 40.4 68.2901 40.4 69.8301V87.8701H42.21V80.32C42.21 78.89 43.38 77.71 44.82 77.71H45.02C46.56 77.71 47.82 78.9701 47.82 80.5101V88.06L47.91 88.03H49.88V82.28C49.88 80.85 51.05 79.67 52.49 79.67H52.69C54.23 79.67 55.49 80.9301 55.49 82.4701V87.7201L55.51 87.7301L57.46 87.7201V84.0101C57.46 82.5801 58.63 81.4001 60.07 81.4001H60.27C61.81 81.4001 63.07 82.66 63.07 84.2V92.06C63.07 92.16 63.07 92.25 63.06 92.35L63.15 92.43C63.32 97.5001 62.97 104.75 58.81 108.38C54.68 111.74 50.54 112.62 46.25 111.95C40.39 111.03 37.35 107.85 34.57 102.82L23.58 85.43C23.01 84.09 23.08 83.17 23.66 82.59C26.13 80.98 30.17 84.3901 34.64 89.2201L34.8 89.18V69.63C34.79 68.2 35.97 67.03 37.4 67.03ZM39.1 59.4901C39.1 60.2501 38.48 60.87 37.72 60.87C36.96 60.87 36.34 60.2501 36.34 59.4901L36.33 53.93C36.33 53.17 36.95 52.55 37.71 52.55C38.47 52.55 39.09 53.17 39.09 53.93L39.1 59.4901ZM26.55 70.88C27.31 70.88 27.93 71.5001 27.93 72.2601C27.93 73.0201 27.31 73.64 26.55 73.64H20.99C20.23 73.64 19.61 73.0201 19.61 72.2601C19.61 71.5001 20.23 70.88 20.99 70.88H26.55ZM30.49 62.64C31.03 63.18 31.02 64.06 30.49 64.59C29.95 65.13 29.07 65.12 28.54 64.59L24.61 60.66C24.07 60.12 24.08 59.24 24.61 58.71C25.15 58.17 26.03 58.1801 26.56 58.7201L30.49 62.64ZM48.63 73.64C47.87 73.64 47.25 73.0201 47.25 72.2601C47.25 71.5001 47.87 70.88 48.63 70.88H54.18C54.94 70.88 55.56 71.5001 55.56 72.2601C55.56 73.0201 54.94 73.64 54.18 73.64H48.63ZM46.65 64.28C46.11 64.82 45.24 64.82 44.7 64.28C44.16 63.74 44.16 62.8701 44.7 62.3301L48.63 58.4001C49.17 57.8601 50.04 57.8601 50.58 58.4001C51.12 58.9401 51.12 59.81 50.59 60.35L46.65 64.28Z" fill="#00CC99"/>
</g>
<defs>
<clipPath id="clip0_584_18">
<rect width="73" height="123" fill="white" transform="translate(0.5 0.5)"/>
</clipPath>
</defs>
</svg>
