<svg width="126" height="31" viewBox="0 0 126 31" fill="none" xmlns="http://www.w3.org/2000/svg">
<g clip-path="url(#clip0_183_4)">
<path d="M33.0748 11.07H45.8181V13.4342H40.8074V26.7246H38.0521V13.4342H33.0637V11.07H33.0748ZM45.2737 15.3897H47.629V17.5771H47.6734C47.7512 17.2678 47.8956 16.9695 48.1067 16.6822C48.3178 16.395 48.5734 16.1188 48.8733 15.8868C49.1733 15.6438 49.5066 15.456 49.8732 15.3013C50.2399 15.1577 50.6176 15.0803 50.9954 15.0803C51.2842 15.0803 51.4953 15.0914 51.6064 15.1024C51.7175 15.1135 51.8286 15.1356 51.9508 15.1466V17.555C51.7731 17.5219 51.5953 17.4998 51.4064 17.4777C51.2176 17.4556 51.0398 17.4445 50.862 17.4445C50.4399 17.4445 50.0399 17.5329 49.6622 17.6986C49.2844 17.8643 48.9622 18.1184 48.6845 18.4388C48.4067 18.7702 48.1845 19.168 48.0179 19.6541C47.8512 20.1402 47.7734 20.6925 47.7734 21.3223V26.7135H45.2626V15.3897L45.2737 15.3897ZM63.4942 26.7246H61.0278V25.1447H60.9833C60.6723 25.7192 60.2167 26.1722 59.6057 26.5146C58.9946 26.8571 58.3725 27.0339 57.7392 27.0339C56.2393 27.0339 55.1505 26.6693 54.4839 25.9291C53.8173 25.1889 53.484 24.0731 53.484 22.5817V15.3897H55.9949V22.3386C55.9949 23.3329 56.1838 24.04 56.5726 24.4487C56.9504 24.8575 57.4948 25.0674 58.1836 25.0674C58.7169 25.0674 59.1502 24.9901 59.5057 24.8244C59.8612 24.6586 60.1501 24.4487 60.3612 24.1725C60.5834 23.9074 60.7389 23.576 60.8389 23.2004C60.9389 22.8247 60.9833 22.416 60.9833 21.9741V15.4007H63.4942V26.7246ZM67.7716 23.0899C67.8494 23.819 68.1271 24.3272 68.6049 24.6255C69.0937 24.9127 69.6714 25.0674 70.3492 25.0674C70.5825 25.0674 70.8491 25.0453 71.1491 25.0122C71.4491 24.979 71.7379 24.9017 71.9935 24.8023C72.2601 24.7028 72.4712 24.5482 72.649 24.3493C72.8156 24.1504 72.8934 23.8964 72.8823 23.576C72.8712 23.2556 72.7489 22.9904 72.5267 22.7916C72.3045 22.5817 72.0268 22.427 71.6824 22.2944C71.338 22.1729 70.9491 22.0624 70.5047 21.9741C70.0603 21.8857 69.6159 21.7863 69.1604 21.6868C68.6938 21.5874 68.2382 21.4548 67.805 21.3112C67.3717 21.1676 66.9828 20.9687 66.6384 20.7146C66.294 20.4716 66.0162 20.1512 65.8162 19.7645C65.6052 19.3779 65.5052 18.9028 65.5052 18.3283C65.5052 17.7097 65.6607 17.2015 65.9607 16.7817C66.2606 16.3619 66.6495 16.0304 67.105 15.7763C67.5716 15.5222 68.0827 15.3455 68.6493 15.235C69.2159 15.1356 69.7603 15.0803 70.2714 15.0803C70.8602 15.0803 71.4268 15.1466 71.9601 15.2681C72.4934 15.3897 72.9823 15.5885 73.4155 15.8758C73.8488 16.152 74.2044 16.5165 74.4932 16.9584C74.7821 17.4003 74.9599 17.9417 75.0376 18.5714H72.4156C72.2934 17.9748 72.0268 17.5661 71.5935 17.3672C71.1602 17.1573 70.6602 17.0579 70.1047 17.0579C69.927 17.0579 69.7159 17.0689 69.4715 17.1021C69.227 17.1352 69.0048 17.1904 68.7826 17.2678C68.5715 17.3451 68.3938 17.4666 68.2382 17.6213C68.0938 17.776 68.016 17.9748 68.016 18.2289C68.016 18.5382 68.1271 18.7813 68.3382 18.9691C68.5493 19.1569 68.8271 19.3116 69.1715 19.4442C69.5159 19.5657 69.9048 19.6762 70.3492 19.7645C70.7936 19.8529 71.2491 19.9523 71.7157 20.0518C72.1712 20.1512 72.6156 20.2838 73.06 20.4274C73.5044 20.571 73.8933 20.7699 74.2377 21.024C74.5821 21.2781 74.8599 21.5874 75.071 21.963C75.282 22.3386 75.3931 22.8137 75.3931 23.3661C75.3931 24.04 75.2376 24.6034 74.9265 25.0785C74.6154 25.5425 74.2155 25.9291 73.7266 26.2164C73.2378 26.5036 72.6823 26.7246 72.0823 26.8571C71.4824 26.9897 70.8824 27.056 70.2936 27.056C69.5715 27.056 68.9049 26.9786 68.2938 26.8129C67.6827 26.6472 67.1495 26.4042 66.7051 26.0838C66.2606 25.7524 65.9051 25.3436 65.6496 24.8575C65.3941 24.3714 65.2607 23.7859 65.2385 23.112H67.7716V23.0899ZM76.0598 15.3897H77.9596V11.987H80.4705V15.3897H82.7369V17.2567H80.4705V23.3108C80.4705 23.576 80.4816 23.7969 80.5038 23.9958C80.526 24.1836 80.5816 24.3493 80.6593 24.4819C80.7371 24.6145 80.8593 24.7139 81.026 24.7802C81.1926 24.8464 81.4037 24.8796 81.6926 24.8796C81.8703 24.8796 82.0481 24.8796 82.2259 24.8685C82.4036 24.8575 82.5814 24.8354 82.7591 24.7912V26.7246C82.4814 26.7577 82.2036 26.7798 81.9481 26.8129C81.6815 26.8461 81.4148 26.8571 81.1371 26.8571C80.4705 26.8571 79.9372 26.7908 79.5372 26.6693C79.1372 26.5478 78.8151 26.36 78.5929 26.1169C78.3595 25.8739 78.2151 25.5756 78.1262 25.211C78.0485 24.8465 77.9929 24.4266 77.9818 23.9626V17.2788H76.082V15.3897H76.0598ZM84.5145 15.3897H86.8921V16.9253H86.9365C87.2921 16.2624 87.7809 15.7984 88.4142 15.5112C89.0475 15.224 89.7252 15.0803 90.4696 15.0803C91.3695 15.0803 92.1472 15.235 92.8138 15.5554C93.4804 15.8647 94.0359 16.2956 94.4803 16.848C94.9247 17.4003 95.2469 18.0411 95.4691 18.7702C95.6913 19.4994 95.8024 20.2838 95.8024 21.1123C95.8024 21.8746 95.7024 22.6148 95.5024 23.3219C95.3024 24.04 95.0025 24.6697 94.6025 25.2221C94.2025 25.7745 93.6915 26.2053 93.0693 26.5367C92.4472 26.8682 91.725 27.0339 90.8806 27.0339C90.514 27.0339 90.1474 27.0007 89.7807 26.9345C89.4141 26.8682 89.0586 26.7577 88.7253 26.6141C88.392 26.4705 88.0698 26.2826 87.792 26.0506C87.5032 25.8186 87.2698 25.5535 87.0699 25.2552H87.0254V30.9116H84.5145V15.3897ZM93.2915 21.0682C93.2915 20.56 93.2249 20.0628 93.0915 19.5767C92.9582 19.0906 92.7582 18.6708 92.4916 18.2952C92.225 17.9196 91.8917 17.6213 91.5028 17.4003C91.1028 17.1794 90.6473 17.0579 90.1363 17.0579C89.0808 17.0579 88.2809 17.4224 87.7476 18.1516C87.2143 18.8807 86.9477 19.8529 86.9477 21.0682C86.9477 21.6426 87.0143 22.1729 87.1587 22.659C87.3032 23.1451 87.5032 23.5649 87.792 23.9184C88.0698 24.272 88.4031 24.5482 88.7919 24.747C89.1808 24.9569 89.6363 25.0564 90.1474 25.0564C90.7251 25.0564 91.2028 24.9348 91.6028 24.7028C92.0028 24.4708 92.3249 24.1615 92.5805 23.7969C92.836 23.4213 93.0249 23.0015 93.136 22.5264C93.236 22.0514 93.2915 21.5653 93.2915 21.0682ZM97.7245 11.07H100.235V13.4342H97.7245V11.07ZM97.7245 15.3897H100.235V26.7246H97.7245V15.3897ZM102.48 11.07H104.99V26.7246H102.48V11.07ZM112.69 27.0339C111.779 27.0339 110.968 26.8792 110.257 26.5809C109.546 26.2826 108.946 25.8628 108.446 25.3436C107.957 24.8133 107.579 24.1836 107.324 23.4544C107.068 22.7253 106.935 21.9188 106.935 21.0461C106.935 20.1843 107.068 19.3889 107.324 18.6598C107.579 17.9306 107.957 17.3009 108.446 16.7706C108.935 16.2403 109.546 15.8316 110.257 15.5333C110.968 15.235 111.779 15.0803 112.69 15.0803C113.601 15.0803 114.412 15.235 115.123 15.5333C115.834 15.8316 116.434 16.2514 116.934 16.7706C117.423 17.3009 117.8 17.9306 118.056 18.6598C118.311 19.3889 118.445 20.1843 118.445 21.0461C118.445 21.9188 118.311 22.7253 118.056 23.4544C117.8 24.1836 117.423 24.8133 116.934 25.3436C116.445 25.8739 115.834 26.2826 115.123 26.5809C114.412 26.8792 113.601 27.0339 112.69 27.0339ZM112.69 25.0564C113.245 25.0564 113.734 24.9348 114.145 24.7028C114.556 24.4708 114.89 24.1615 115.156 23.7859C115.423 23.4103 115.612 22.9794 115.745 22.5044C115.867 22.0293 115.934 21.5432 115.934 21.0461C115.934 20.56 115.867 20.0849 115.745 19.5988C115.623 19.1127 115.423 18.6929 115.156 18.3173C114.89 17.9417 114.556 17.6434 114.145 17.4114C113.734 17.1794 113.245 17.0579 112.69 17.0579C112.134 17.0579 111.645 17.1794 111.234 17.4114C110.823 17.6434 110.49 17.9527 110.223 18.3173C109.957 18.6929 109.768 19.1127 109.634 19.5988C109.512 20.0849 109.446 20.56 109.446 21.0461C109.446 21.5432 109.512 22.0293 109.634 22.5044C109.757 22.9794 109.957 23.4103 110.223 23.7859C110.49 24.1615 110.823 24.4708 111.234 24.7028C111.645 24.9459 112.134 25.0564 112.69 25.0564ZM119.178 15.3897H121.078V11.987H123.589V15.3897H125.855V17.2567H123.589V23.3108C123.589 23.576 123.6 23.7969 123.622 23.9958C123.644 24.1836 123.7 24.3493 123.778 24.4819C123.855 24.6145 123.978 24.7139 124.144 24.7802C124.311 24.8464 124.522 24.8796 124.811 24.8796C124.989 24.8796 125.166 24.8796 125.344 24.8685C125.522 24.8575 125.7 24.8354 125.877 24.7912V26.7246C125.6 26.7577 125.322 26.7798 125.066 26.8129C124.8 26.8461 124.533 26.8571 124.255 26.8571C123.589 26.8571 123.055 26.7908 122.656 26.6693C122.256 26.5478 121.933 26.36 121.711 26.1169C121.478 25.8739 121.333 25.5756 121.245 25.211C121.167 24.8465 121.111 24.4266 121.1 23.9626V17.2788H119.2V15.3897L119.178 15.3897Z" fill="#191919"/>
<path d="M30.1417 11.07H18.6316L15.0764 0.177063L11.5101 11.07L0 11.059L9.32138 17.7981L5.75503 28.68L15.0764 21.952L24.3867 28.68L20.8314 17.7981L30.1417 11.07Z" fill="#00B67A"/>
<path d="M21.6314 20.2617L20.8314 17.7981L15.0764 21.952L21.6314 20.2617Z" fill="#005128"/>
</g>
<defs>
<clipPath id="clip0_183_4">
<rect width="126" height="31" fill="white"/>
</clipPath>
</defs>
</svg>
