<svg width="177" height="177" viewBox="0 0 177 177" fill="none" xmlns="http://www.w3.org/2000/svg">
<path d="M67.1382 54.5312C67.1382 47.5936 61.4688 41.9242 54.5312 41.9242C47.5936 41.9242 41.9242 47.5936 41.9242 54.5312C41.9242 61.4688 47.5936 67.1383 54.5312 67.1383C61.4688 67.1383 67.1382 61.4688 67.1382 54.5312Z" fill="#D71921"/>
<path d="M108.987 118.835H119.356V108.466C119.356 100.782 123.982 94.2175 130.546 91.2336L128.83 85.2657V84.8181L117.491 50.4284L77.7308 101.677L67.0634 83.6245L24.841 126.22H87.0556H94.0678C97.4247 121.744 102.87 118.835 108.987 118.835Z" fill="#D71921"/>
<path d="M176.051 28.198C176.051 12.6817 163.369 0 147.853 0H28.198C12.6816 0 0 12.6817 0 28.198V147.928C0 163.37 12.6816 176.051 28.198 176.051H112.643C115.552 176.051 117.939 173.664 117.939 170.755C117.939 167.845 115.552 165.458 112.643 165.458H28.198C18.5003 165.458 10.5929 157.551 10.5929 147.853V28.198C10.5929 18.5003 18.5003 10.5929 28.198 10.5929H147.927C157.625 10.5929 165.533 18.5003 165.533 28.198V112.195C165.533 112.27 165.533 112.27 165.533 112.345C165.533 115.254 167.92 117.641 170.829 117.641C173.738 117.641 176.125 115.254 176.125 112.345C176.125 112.345 176.125 112.345 176.125 112.27H176.2V28.198H176.051Z" fill="#D71921"/>
<path d="M170.605 132.486H143.676V105.556C143.676 102.647 141.289 100.26 138.379 100.26C135.47 100.26 133.083 102.647 133.083 105.556V132.486H106.153C103.244 132.486 100.857 134.873 100.857 137.782C100.857 140.692 103.244 143.079 106.153 143.079H133.083V170.009C133.083 172.918 135.47 175.305 138.379 175.305C141.289 175.305 143.676 172.918 143.676 170.009V143.079H170.605C173.515 143.079 175.902 140.692 175.902 137.782C175.827 134.873 173.515 132.486 170.605 132.486Z" fill="#D71921"/>
</svg>
