<svg width="25" height="25" viewBox="0 0 25 25" fill="none" xmlns="http://www.w3.org/2000/svg">
<g clip-path="url(#clip0_36_27)">
<path d="M12.5 25C19.4036 25 25 19.4036 25 12.5C25 5.59647 19.4036 0 12.5 0C5.59644 0 0 5.59647 0 12.5C0 19.4036 5.59644 25 12.5 25Z" fill="#CFCFCF"/>
<path fill-rule="evenodd" clip-rule="evenodd" d="M7.29167 18.2208V15.7797C7.29167 13.6745 8.91771 11.9792 10.9375 11.9792H14.0625C16.0828 11.9792 17.7083 13.6745 17.7083 15.7797V18.2208H7.29167Z" fill="#406B95"/>
<path d="M12.4901 11.1667C13.9226 11.1667 15.0839 10.0007 15.0839 8.5625C15.0839 7.12426 13.9226 5.95833 12.4901 5.95833C11.0576 5.95833 9.89636 7.12426 9.89636 8.5625C9.89636 10.0007 11.0576 11.1667 12.4901 11.1667Z" fill="#406B95"/>
<path d="M9.375 15.8656V18.2292M15.625 15.8656V18.2292" stroke="#0C5286" stroke-linejoin="round"/>
</g>
<defs>
<clipPath id="clip0_36_27">
<rect width="25" height="25" fill="white"/>
</clipPath>
</defs>
</svg>
