<svg width="48" height="17" viewBox="0 0 48 17" fill="none" xmlns="http://www.w3.org/2000/svg">
<path d="M17.202 16.269H21.087L23.584 0.732002H19.422L17.202 16.269Z" fill="#D71921"/>
<path d="M13.873 0.454002L10.266 11.552L9.58499 8.426C7.64299 3.709 4.31299 1.767 4.31299 1.767L7.76899 15.991H11.931L17.758 0.453001H13.873V0.454002ZM44.948 0.454002H40.786L34.404 15.992H38.288L39.12 13.772H44.114L44.669 15.992H48L44.948 0.454002ZM39.954 10.997L42.174 5.171L43.284 10.997H39.954ZM28.855 4.893C28.855 4.061 29.41 3.228 31.352 3.228C32.739 3.228 34.127 4.338 34.127 4.338L34.959 1.009C34.959 1.009 33.017 0.177002 31.352 0.177002C27.19 0.177002 25.248 2.397 25.248 4.894C25.248 9.888 30.797 9.056 30.797 11.553C30.797 12.108 30.52 12.94 28.3 12.94C26.08 12.94 24.416 12.108 24.416 12.108L23.861 15.437C23.861 15.437 25.248 16.269 28.023 16.269C30.52 16.546 34.405 14.327 34.405 10.997C34.405 7.113 28.855 6.836 28.855 4.893Z" fill="#D71921"/>
<path d="M9.711 9.055L8.324 2.119C8.324 2.119 7.769 0.732002 6.104 0.732002C4.439 0.732002 0 0.732002 0 0.732002C0 0.732002 8.046 3.229 9.711 9.055Z" fill="#FF9800"/>
</svg>
